<svg xmlns="http://www.w3.org/2000/svg" viewBox="0 0 1352.23 1370.92"><defs><style>.cls-1{fill:#26333b;}.cls-2{fill:#0fa9e0;}.cls-3{fill:#a8d8f2;}.cls-4{fill:#71c3eb;}.cls-5{fill:#1da7de;}.cls-6{fill:#40b1e2;}.cls-7{fill:#0c2029;}.cls-8{fill:#fdfdfe;}.cls-9{fill:#04a7e0;}</style></defs><title>Asset 8</title><g id="Layer_2" data-name="Layer 2"><g id="Layer_1-2" data-name="Layer 1"><path class="cls-1" d="M992.29,834.2c24.56,27.06,49,54.19,73.68,81.16,25,27.37,31,62.08,15.59,91.77-17.2,33.09-47.68,48.83-85.48,42.83-11.41-1.81-15.07,1.1-17.1,12.52-7.74,43.43-55.55,73.41-97.63,61.11-10.7-3.13-13-.23-15.45,9.16-12.57,48.75-64.5,71.81-111.92,51.15-5.9-2.57-15-4.78-12.05-12,3.41-8.34,12.13-11.85,22.11-7.06,33.17,15.92,66.14-1.74,78.56-30.55,6.42-14.91,6.34-27.7-6.62-41.24-35.8-37.42-70-76.41-104.65-114.9-4.66-5.17-10.51-11-3.35-18.17,8.34-8.38,14-.76,19,4.56,36.87,39.43,74.33,78.37,110,118.9,33,37.52,84.51,22,100.09-19.32,5-13.15,4.64-26-5.78-38.13C909.79,977.61,869.07,928.58,828,879.88c-5.48-6.48-12.45-13.74-4.29-21,8.37-7.5,15.2.71,20.41,6.86,38.8,45.76,78.21,91,115.77,137.79,36,44.76,86.37,27.24,102.46-6.24,10.33-21.48,8.52-42.54-7.74-60.48C1005.16,882.2,955,828.35,905.91,773.46,847.47,708,790,641.74,731.83,576.06c-3.65-4.13-3-6.18.29-9.13,6.91-3.47,12.22-13.33,21.71-2.17,33.45,39.32,67,78.6,101.68,116.81,30.23,33.28,58.35,68.52,91.36,99.26,4.93,12.36,14.58,20.89,24,29.6C974.83,821.22,984.17,827.16,992.29,834.2Z"/><path class="cls-1" d="M220.12,789.83c-.11,6.83,4.28,10.5,8.29,14.16,30.69,27.93,61.54,55.67,92,83.79,3.92,3.61,14.24,5.88,6.62,14.62-6,6.88-12.39,9.57-20.84,1.69q-51.53-48-104-95c-6.22-5.57-7-9.76-4.2-17.71q45.12-126.2,89.2-252.78c9.31-26.58,18.47-53.23,26.78-80.13,3.72-12,8.15-14.42,19.41-7.57a222,222,0,0,0,69.41,28c32.56,6.88,56.44-11.41,78.88-31.38,17.59-15.66,35.18-31.54,59-36.41,46.86-9.54,85.57,7.3,119.49,38.6,4.06,3.75,5.33,8.09.63,10.7-5.17,2.88-9.62,11-18,2.82-12.87-12.62-27.79-22.67-45.52-27.77-31-8.9-60.15-8.3-85.79,14.73-11.73,10.54-24,20.47-36.5,30.15-32.65,25.37-68.14,25.1-105,10.9-5.08-2-10.14-3.95-15.15-6.08-23.67-10.08-24.08-10.24-32.33,13.46-30.09,86.52-59.83,173.16-89.87,259.71C229.08,769,224.37,779.33,220.12,789.83Z"/><path class="cls-2" d="M714.58,563.32l-9.18,10.56c-6.63-2.22-9.22,2.4-11.81,7a5.78,5.78,0,0,0-2.54,1.19c-20.13,7.35-35.75,22.07-53.51,33.26-13.58,8.55-28.83,15.24-39,28.63a4.31,4.31,0,0,0-2,1.36c-6.54.43-9.67-6.23-15.43-7.43l-8-8.57c-.85-9.78-6.14-16.46-14.62-20.92l-.3-.44c-4.4-8.37-6.93-18.17-17-22.16q-.18-4.66-.35-9.35c3.38-1.17,6.3-3.86,5.83-7-2.56-17.12,10-22.23,21.13-30.25,18.71-13.46,40.8-22.1,56.68-39.55a5.43,5.43,0,0,0,2.48-1.23c14.44-6.83,28.83-13.72,38.63-27.15l6.36-3.74c8.52-1.11,16.25-3.68,21.07-11.55a5.32,5.32,0,0,0,2.35-.84c5,.36,9.1-2.44,12.7-5.08,8.44-6.17,5.75,2.51,7.55,5.21-.25,3.16-.51,6.31-.76,9.47-5.79,10.49-8.17,21.51-5.32,33.38l.06,44.93C707.07,550.83,707.83,557.82,714.58,563.32Z"/><path class="cls-2" d="M482.31,700.49c-31.65,3.55-58.4-25-64.12-55.9-1.76-9.47,4.69-13.11,10-16.84,18.69-13.08,37.87-25.47,57-37.94,8.09-5.27,38.21,3.26,45.37,12.69,10.84,14.26,21.31,28.82,32.43,42.85,7.85,9.89,9.36,17.49-3.45,24.83C535.63,683.9,513.48,701.67,482.31,700.49Z"/><path class="cls-3" d="M1080,907.2c-1.58-.17-4.13.21-4.58-.59C1061,880.56,1035,865.25,1016.53,843c-2.56-3.08-9.46-6.5-.78-10.67,4.73,6.55,9.93,8.74,15.52,1.14s12.81-14,17-23.47,7.36-22.53,21.54-24.22c3.36,2.33,4.56,7.31,9.5,7.7.36,4,2.5,6.27,6.61,6.51h0c.22,4.14,2.51,6.23,6.53,6.61h0c7.61,9.4,14.86,19.12,22.93,28.1,7.91,8.79,8.75.07,10.76-5l2.67-10.1c2.81-1.35,3.48-3.77,3.29-6.61,2.61-15,2.51-30.16,2.57-45.3-.28-1.37-.57-2.73-.86-4.09l-1.65-16.41q-2.48-6.54-5-13.06-2.07-4.22-4.12-8.43c-.35-1.63-.69-3.25-1-4.88-.18-4.46-3.72-6.75-6.25-9.69.18-4.81-.46-9.14-6.17-10.5a10.88,10.88,0,0,0-.77-2.49l-3-3.59c-1-1.08-2-2.17-3-3.26,0-2.84-.65-5.32-3.79-6.27l0,0c-8-11.74-18-21.11-31.93-31.16,3.91,26,1.87,48.08,2,70.11q-.29,3.14-.55,6.26c-3.24,4.1-2.27,9-2.54,13.64q-1.66,3.17-3.35,6.33-3.11,8.42-6.22,16.82a6.47,6.47,0,0,0-.1,3c-2.31,4.23-4.33,8.66-7,12.65-10,15-16.38,32.57-31.83,43.53L1009,824c20.07-28.46,38.58-57.68,45.42-92.62,6.25-2,5.64-6.48,4.26-11.31,1.66-19.09,1.24-38.19.07-57.29q2.11-6.13-4.07-8.07c-.77-6.18-4.61-13.18,4.48-16.7,13.4,7.31,24.83,17,35.93,27.46,16.26,15.39,27.52,34.24,39.79,52.48.6,5.93,2.6,11.56,3.87,17.29,3.35,15.13,10.86,30.12,8.89,45.53-2.86,22.32-8.4,44.24-15.35,65.92-5.12,16-20.59,27.05-19.91,45.22l.11-.13c-5.06.92-8.62,2.42-3,7.54-.58,6.35-6.78,7.84-10.11,11.82-8.31,9.92-11.71,4.9-13.83-4.38,9.41-14.51,22.92-26.49,27.32-44.12.72-1.33,1.48-2.64,2.11-4,.06-.13-.75-.66-1.15-1l-2,4.18c-6.22,1.71-10.2,10-18.28,6.27-1-2.32-1.62-5.17-5.09-4.47-.55.12-1.35,2.21-1.12,2.44a44,44,0,0,0,4.61,3.59c4.42,8.12,3.57,14.79-4.83,20C1080.73,893.61,1077.64,899.41,1080,907.2Zm-.82-54.41,2,1.29-1.26-2c-.68-2.46-1-5.31-4.59-5a1.61,1.61,0,0,0-1.07,1.08C1073.94,851.75,1076.62,852.24,1079.2,852.79Zm29.86-8.69c.32-2.94-2.68-4.73-4.9-7.06-9.38-9.84-18.61-19.82-28.08-29.57-2.95-3-4.69-10.25-11.15-4.88-5.26,4.38-7,10-2.07,15.68,9.86,11.56,20,22.87,30,34.3,2.89,3.29,6.32,4.67,9.9,1.62C1105.59,851.81,1108.82,849.36,1109.06,844.1Zm-63.66-11.62c-2.87,4.41-12.11,6.33-6.31,13.64,10.45,13.18,22.33,25.26,33.92,37.5,3.06,3.24,7,2.29,10.18-.77,2.9-2.79,2.63-5.9.27-8.71q-16.21-19.38-32.69-38.56C1049.81,834.46,1048.07,834,1045.4,832.48Z"/><path class="cls-3" d="M573.79,987.3c4,11.78,9,6.36,12.56.17,5.42-9.4,13.35-14.47,23.6-16.65-.14,3.76-3.23,5.23-5.39,7.61-3.69,4.06-14,4.26-10.67,12,3.45,8.1,10,18.94,18.49,18.36,21.66-1.47,29.53,9.89,30.34,28,.64,14.54,13.26,15.76,21.14,20.51,6.45,3.88,11.4-5.3,15-11.39,1-1.72,3.22-2.76,4.88-4.11V1055c7.47-2.29,13.28-8.46,21.21-8.81-2.52,8.46-10.46,9.9-16.85,13.69-3.82,2.27-12.25,5.6-5.52,11.88,7.55,7.06,13.37,17.11,26.3,17.12,11.09,0,19.18,8.13,21.7,17.34,3.39,12.36,10.49,21.82,17.2,31.9-5.68,12.62-8.7,27.6-26.24,29.76-.05-3,1.51-4.88,3.79-6.64,5-3.89,11.93-7.5,9-15.29-2.65-7.15-8.56-11.33-15.91-14.76-12.59-5.87-19.48,5.75-29.38,7.47,1.37-9.77,15.88-12.15,13.52-24,5.86,1.09,12.27,8.95,17.39,1.12,3.57-5.47-1.68-10.74-6.87-12.71-11.23-4.27-11.53,3.28-10.78,11.23l-13.7,4.29c.19-3.23.31-6.47.57-9.7,1.2-14.6-10.55-20.6-19.65-27.27-8.83-6.46-12.24,5.66-18.55,8.49s-9.12,10.71-16.6,12.26c-3.77-2-4.85-5.51-5.43-9.33,2.3-7.22,8.48-11.53,14.14-14.82,12.15-7,8.24-12.49.14-19.1-4.26-3.48-9.65-4.71-13.92-7.35-13-8.07-19.49,6.82-29.8,7,2.38-11.09,13.06-13.48,20.33-19.44,5.74-.53,13.54.7,12.31-8.42-.71-5.19-5.38-10.31-11.08-10.12-8.3.27-4.23,8.4-6.28,12.78-6.15-.9-9.19,7.38-15.74,5.31.53-3.78,1.37-7.54,1.52-11.34.53-13-9.8-19.26-18.13-25.59-7.93-6-12.48,3.76-17.61,7.63-23.94,18.07-45.77,38.29-61.44,64.32-2.74-5.13.86-9.07,2.52-13.36,2.14-5.57,4.39-11.1-2.17-15.43,7.48-13.53,20.86-20.45,32.78-28.9,6.29-4.45,6.43-7.15,1.59-13.92-9.58-13.41-23.31-13.54-36.95-15.37-.4-7.75,9.3-5,11-10.53,5.74.27,9.92-1.47,8.34-8.2-1.49-6.32-5.7-10.62-12.47-10.46-7.76.19-5.5,6.23-5.38,10.81-5.3,2.29-8.23,9.65-15.69,7.29,3.43-9.45,1.41-18.31-3-26.91,3.68-1.71,12.5,4.07,9.87-6.79l-.12.11q.69-.79,1.41-1.56c6.52,5.33,15.13,4.22,22.38,7.28a5.64,5.64,0,0,0,2.4.73c1.37,3.12,3.22,5.7,7,6.09h.21L530,958.5a4.85,4.85,0,0,0,.68,2.46c-2.27,16.37,7.9,25.13,20,32.71a8,8,0,0,0,2.2,1c3.17,7.51,5.83,5.33,8.31-.43,3.35-1,5.08-3.54,6.43-6.48Z"/><path class="cls-4" d="M1198.29,392.85l-9.83,6.72c-15.37,5.19-27.94,14.81-39.92,25.34l-52.19,30.24c14.89.59,23.64-3.5,32-8.74,4-2.52,8.83-8,12.44-2.1,3.73,6.08-3.88,7.76-7.62,10.18q-51.32,33.27-102.78,66.28c-6.19.68-11.72,2.29-13.52,9.33-8.56,6.94-23.24,7.83-23.12,23.35-4.38,8.73-4.64,17.45,0,26.16-4.3,48.46-31.68,79.63-74.41,99.29-2.26-10.29-10.1-7.12-16.71-6.92,1-4.47,4.67-7.43,8.28-5.89,9.05,3.89,14.51-2.34,20.7-6.08,37.53-22.68,53-57.23,52.52-99.86-.14-11.61-.14-22.76,7.69-32.29a8.11,8.11,0,0,0,2.4-.25c6.78-1.28,12.92-3.62,16.48-10.14l0,0c4.65-.12,9.4-.08,10-6.48h0c14.64,1.56,8.07-8,7.61-14.45l12.62.29c22.68-3.08,36.24-21,53.6-32.91-20.26,1.07-33.2,17.35-50.75,23.86-8.61-7.42-14-1.44-19.28,4.69l-3.74,1.38,0,.05c-2.35-11.4-8.77-1.6-13.14-2.52-.45-.53-.9-1.07-1.34-1.62,9.53-8.12,18.4-17.2,30.8-21.15.07,8.12.21,15,11.4,7.54,21-14,42.48-27.43,63.88-40.9,24.29-15.29,48.77-30.27,73-45.6C1191.2,386,1196.12,383,1198.29,392.85Z"/><path class="cls-5" d="M683.78,1041.77c-1.66,1.35-3.84,2.39-4.88,4.11-3.64,6.09-8.59,15.27-15,11.39-7.88-4.75-20.5-6-21.14-20.51-.81-18.08-8.68-29.44-30.34-28-8.52.58-15-10.26-18.49-18.36-3.3-7.74,7-7.94,10.67-12,2.16-2.38,5.25-3.85,5.39-7.61a15.29,15.29,0,0,0,2.6-1.11c5.15,1.33,8.44-.81,10.35-5.53l9.31-1.28a23,23,0,0,0,14.2.09l6.07.84c3.46,4.41,7.68,7.1,13.57,6l18,16.55c-3.48,6.81,1.62,9.21,6.12,11.93q.2,4.26.41,8.53c-2.4,4.6-1.69,9.22-.07,13.84q-.93,6.23-1.88,12.43c-3,1-4,3.24-3.79,6.17A14.54,14.54,0,0,0,683.78,1041.77Z"/><path class="cls-2" d="M747.82,1138.11c-6.71-10.08-13.81-19.54-17.2-31.9-2.52-9.21-10.61-17.33-21.7-17.34-12.93,0-18.75-10.06-26.3-17.12-6.73-6.28,1.7-9.61,5.52-11.88,6.39-3.79,14.33-5.23,16.85-13.69l6-1.51c20.27-3.42,38.91.71,56,12q2.38,2.74,4.76,5.5c8.18,19.41,7.94,39,1.26,58.73l-8.82,10.73c-5.18-.14-7.64,3.36-9.79,7.29Z"/><path class="cls-3" d="M728.52,533.55c.15,2.18.31,4.36.46,6.55-.75,3.73-2.1,8.31.8,10.83,4,3.51,6.64-1.59,9.16-3.72,8.47-7.15,14.78-3.85,20.5,3.55,6.9,8.94,13.1,18.58,23.85,23.64a2.4,2.4,0,0,0,.78,2c13.13,23.48,34.07,40.57,50.67,61.23,5.73,7.12,9,18.27,21,18.8,3.16,5.26,1.7,13.45,9.85,15.55,3.2,6.51,8.1,11.56,13.74,16-.25,4.39,1.91,6.61,6.21,6.92a54.74,54.74,0,0,0,3.79,5.22c8.13,8.91,11.78,28.41,30.52,11.93,4-3.53,10.58-.86,13.9,4.6,3.68,6,1.2,10.65-4.38,13.34-9.18,4.44-7.09,9.17-1.2,14.61C937.31,753,945.76,762,952,772.87c-3.53,1.47-4,5-5.13,8-33-30.73-61.13-66-91.36-99.25-34.71-38.21-68.23-77.49-101.68-116.81-9.49-11.16-14.8-1.3-21.71,2.17-16.13-15.61-19-72.13-4.48-89.26.61,2.2,1.21,4.41,1.82,6.62C728.22,500.69,720.85,517,728.52,533.55Z"/><path class="cls-5" d="M503.46,1073.9c15.67-26,37.5-46.25,61.44-64.32,5.13-3.87,9.68-13.65,17.61-7.63,8.33,6.33,18.66,12.56,18.13,25.59-.15,3.8-1,7.56-1.52,11.34l-6.8,6.29c-9.44,4.21-18.89,8.42-23.56,18.66l-24.34,22.44c-11.51,1.72-17.89,9.86-23.59,18.84l0,0c-12.34,3.44-10.33-11.62-18.12-14.06Q503.08,1082.49,503.46,1073.9Z"/><path class="cls-5" d="M599.58,1058.77c10.31-.21,16.75-15.1,29.8-7,4.27,2.64,9.66,3.87,13.92,7.35,8.1,6.61,12,12.05-.14,19.1-5.66,3.29-11.84,7.6-14.14,14.82l-9.06,6.32c-12.12,3.32-20.38,11.57-27.38,21.44l-.27.21c-5.67,2.8-12.25,4.31-15.41,10.72l-6,1.14c-4.94-2.12-9.55,1.89-13.93,1.23-8.17-1.23-17.61-.48-23.49-7.79-4.88-6.06,5-8.37,4.59-13.63l.12-.12c4-1.28,7.61-2.91,8.29-7.72l7-6.76c14.32-5.82,26.28-14.47,33.91-28.3Z"/><path class="cls-5" d="M501.23,986.92c13.64,1.83,27.37,2,36.95,15.37,4.84,6.77,4.7,9.47-1.59,13.92-11.92,8.45-25.3,15.37-32.78,28.9l-.23.28c-6.8,2.31-13.31,5-16.81,12a7.63,7.63,0,0,0-2.61,1.15c-12.54,5.71-26.17,3.44-39.23,5.36l-6-1.14c-2.31-6.2-12.71-7.52-10.08-16.7l10.91-8.81c14-5.11,23.48-15.61,32-27.18l6.59-6.55c10.92.27,15.8-7.57,20.7-15.39A4.64,4.64,0,0,0,501.23,986.92Z"/><path class="cls-2" d="M432.7,878.11l6.69,6.84c11.09,24.7,8.12,46-14.67,62.9-1.52,1.12-2,3.66-2.93,5.53l-.11.15c-13.59,2.92-19.83-4.42-22.53-16.36-4-18-13.59-25.29-32.88-25l-.31-.29c-8.4-10-4.93-17.28,5-23.62,3-1.93,5.86-4.76,6.16-8.94v0C395.45,870.48,413.94,868,432.7,878.11Z"/><path class="cls-5" d="M484,948.93c4.39,8.59,6.41,17.45,3,26.9q-33.93,28.88-67.84,57.78c-6.28,5.38-9.67,5.8-11.36-3.93-2.74-15.74-4.17-30.92,6.6-44.49l24.52-24.38,22.85-19.92,18,.36Q481.9,945.09,484,948.93Z"/><path class="cls-4" d="M865.59,671.93c-8.15-2.1-6.69-10.29-9.85-15.55,3.22-.36,6.52-1.33,9.66-1,36.79,4.25,91.61-39.63,95.94-75.37,2.86-1.46,3.3-4,3.2-6.89l0-6.59c-1.14-15.53,2.73-31.09-3.12-46.68-8.84-23.58-31.2-30.42-49.28-42.52-18.79-12.56-41.46-18.24-59.3-32.64,0-1,0-2,0-3,33.15,12.36,65,28.1,92.91,49.3,15.68,11.92,28.56,8.56,43.53,4.68,5.77-1.49,11.31-3.89,17-5.89.44.55.89,1.09,1.34,1.62l-7.45,9.15a7.78,7.78,0,0,0-2.72.22l-6.62.36c-15.44,3.05-20.95,11.23-13.51,26.11.09,3.82,0,7.65.31,11.44,6.37,67-48.71,125.49-104.44,126.41C868.48,665.17,866.28,667.62,865.59,671.93Z"/><path class="cls-5" d="M634.45,1102.34c7.48-1.55,10.37-9.46,16.6-12.26s9.72-14.95,18.55-8.49c9.1,6.67,20.85,12.67,19.65,27.27-.26,3.23-.38,6.47-.57,9.7l-3.78,2.73a43.72,43.72,0,0,0-25.46,20.51l-6.75,6.58c-8.18.18-11.85,7-16.6,11.83-6.85,6.9-13.15,8.16-20.33,1.07l.24-33c4.84-1.9,7.76-4.81,5.45-10.45Z"/><path class="cls-5" d="M689.12,1138.65c9.9-1.72,16.79-13.34,29.38-7.47,7.35,3.43,13.26,7.61,15.91,14.76,2.89,7.79-4,11.4-9,15.29-2.28,1.76-3.84,3.67-3.79,6.64l0,0c-4.12.11-6.6,2-6.84,6.31L711,1177c-7.11,2.08-13.6,5-17.16,12.14l-5.07,1.92c-3.36-.66-5.39.93-6.65,3.87l-33-.37c-2-4.7-5-7.46-10.47-5.57-4.71-8.59,4.63-9.72,7.58-14.24,3.86-.33,6.37-2.16,6.88-6.21l.1-.1c7.88-2.47,15.2-5.66,18.38-14.21l10.42-9.47c4.13.06,6.41-2,7-6.06Z"/><path class="cls-5" d="M1058.71,662.75c1.17,19.1,1.59,38.2-.06,57.3-5.25,2.32-5.7,6.45-4.27,11.3C1047.54,766.29,1029,795.51,1009,824c-3.46,1.54-6.61.76-9.6-1.25-.94-4.6-1.33-9.59-7.44-10.58q-1-2.34-2.12-4.68c.15-2.27-.85-3.47-3.19-3.43-.26-1.4-.53-2.8-.79-4.2,54.81-45,75.88-101.52,58.48-172,4.57,4.68,13.73,1.06,14.82,10.1-9.09,3.53-5.25,10.53-4.49,16.71C1052.9,658.94,1055.22,661.14,1058.71,662.75Z"/><path class="cls-6" d="M1112.34,891.88c-.68-18.17,14.79-29.21,19.91-45.22,7-21.68,12.49-43.6,15.35-65.92,2-15.41-5.54-30.4-8.89-45.53-1.27-5.73-3.27-11.36-3.87-17.29,1.5-1.76,4.41-3.5,5.32-1.47,3.26,7.3,4.55,15.62,8.53,22.42,5.74,9.81,1.58,23.43,12.49,31-4.61,21.09-1.87,41.53,5.39,61.58.77,6.62-3.09,11.54-6.13,16.76-14.11,2.11-17.26,15.37-24.67,24.29L1122,888.29Z"/><path class="cls-5" d="M350.22,1006.83l-13.18.24c-2.31-7.51-21.88-3.8-12.36-19l.24-.2c3.53-.66,5.42-3.08,6.66-6.21a5.43,5.43,0,0,0,2.08-1.32c8.65-3,15.92-7.56,19.73-16.34l0,0c6.14.09,8.84-3.88,10.58-9l.11-.14c7-.24,14.13-1.32,21-.48,6.16.75,10.94,5.7,13.16,11.16,2.54,6.26-4.42,7.46-7.85,10.48-4.43,3.9-9.66,7.2-11.33,13.45l-.2.17c-3.59.55-5.61,2.86-6.81,6.09a5.75,5.75,0,0,0-1.91,1.59c-3.63-.42-6.27,1.17-8.24,4.09l-4.86,2.57C354.13,1003.34,351.73,1004,350.22,1006.83Z"/><path class="cls-6" d="M1240.06,705.32c15.32-1.76,11.76,11.38,11.4,17.74-.44,7.68.06,16.19-4.15,23.76-4.64,8.34,3.18,6.61,7.2,7.74.25,1.15.5,2.31.76,3.47l-37,23.54c-6.61-2.09-9.16,2.39-11.56,7.13l-8.3,5.6c-4.39-1.37-11-.91-10.38-7.69,1.27-14.94-6.11-28.23-7.26-42.65,25.42,23.68,44.83,22.81,60-2.68q.38-3.62.74-7.25c3-3.45,3.12-6.73-.62-9.76,0-2.37,0-4.75.05-7.13Q1240.49,711.23,1240.06,705.32Z"/><path class="cls-5" d="M301.89,954.19c.08-1.82.15-3.64.23-5.46,9.1-8.44,17.94-17.13,25.06-27.38h0c8.21-3.56,16.13-10,25.44-2.53l.16.15c2.79,6.08,5,12.3,4.44,19.15l-.16.13c-9.14,1.37-13.76,7.81-17.31,15.44l-12.32,10.74c-9,2.47-16.13,7.21-20,16l-3.34.14C303.59,971.76,304.93,962.8,301.89,954.19Z"/><path class="cls-3" d="M379.09,989.47c1.67-6.25,6.9-9.55,11.33-13.45,3.43-3,10.39-4.22,7.85-10.48-2.22-5.46-7-10.41-13.16-11.16-6.88-.84-14,.24-21,.48-1.38-6.58,7-8.58,6.87-14.56,4.79.84,9.65,6.51,14.34,0,2.63-3.64,1.31-7.12-1.33-10.19-4.32-5-8.8-9.66-16-4.57l-1.68-13.39c19.29-.31,28.83,7,32.88,25,2.7,11.94,8.94,19.28,22.53,16.36C404.82,962.36,400.22,985.71,379.09,989.47Z"/><path class="cls-5" d="M1166.57,831.4c-7.26-20-10-40.49-5.38-61.58,4.2-15.09-6.31-27.9-6.59-42.3l7.57-.51c5.36,5.72,3.32,14.94,9.57,20.24-1,17.24,4.81,33.41,7.84,50l-.48,9.3c-6.85,1.87-3,9.71-7.27,13-5.07,2.32-8,5.57-4.85,11.39Z"/><path class="cls-5" d="M961.46,519.88c-8.84-23.58-31.2-30.42-49.28-42.52-11.56-7.72-24.55-12.82-36.95-18.95-19.92-9.85-40-19.71-61.27-26.41-15.82-5-32.38-8.17-49-7.81-3.14.06-7.81-.43-10.59,1.13-2.12,1.18-3.37,3.81-5.89,5-4.92,2.37-11.16,2.56-13.84,8.12l-.72,6.15c1.43,7.58-1.39,14-5.41,20.14q.38,5,.76,9.95c-.54,1-1.08,2-1.61,3,.61,2.2,1.21,4.41,1.82,6.62,2.72.9,5.51,2.66,4.81,5.53-3.52,14.39-.67,29.58-5.75,43.73.15,2.18.31,4.36.46,6.55,8.36,2.92,14.5-7.14,25.37-1.29,15.66,8.43,23.51,20.31,28.94,35.59a2.4,2.4,0,0,0,.78,2c9.79,1.6,16,7.42,21.3,15.68,3.5,5.45,7.63,11.76,16.59,12.85-.44-8.78-11.09-16.62-1.91-25.2-2.77-32.07,11.12-54.66,39.36-69.06,6.2-3.36,10.76-12,19.82-6.19h19.15c12,1.67,26.69-1.68,30.06,16.11,14.82,11.83,20.18,29,25.74,46l10.4,0C963.44,551,967.31,535.47,961.46,519.88Z"/><path class="cls-5" d="M1069.81,785.8c-14.18,1.69-17.35,14.74-21.54,24.22s-11.31,15.72-17,23.47-10.79,5.41-15.52-1.14l1.86-6.16c15.45-11,21.85-28.57,31.83-43.53,2.66-4,4.68-8.42,7-12.65C1050.57,784,1069.29,777.19,1069.81,785.8Z"/><path class="cls-3" d="M624.43,499.63c-15.88,17.45-38,26.09-56.68,39.55-11.14,8-23.69,13.13-21.13,30.25.47,3.16-2.45,5.85-5.83,7-2.52-1-5-2.06-7.55-3.06.21-3.16.41-6.35.62-9.54l3.3-.17c1.09.8,2.15,1.64,3.3,2.33a14.58,14.58,0,0,0,1.29-1.66l-3.83-1.56c.13-5.95-.38-11.58,6.11-15.69,24.42-15.44,48.49-31.43,72.7-47.22A7,7,0,0,1,624.43,499.63Z"/><path class="cls-6" d="M484.66,921.18c12.14-8.79,22.62-19.77,38.45-23.1,14.9-3.14,27.66-.45,39.55,8.45l1.14,5c-6.95-.23-13.3-1.07-20.06-4.4-18.14-8.91-46.45,4.91-53.32,24.79C483.76,930.89,485.08,925.57,484.66,921.18Z"/><path class="cls-3" d="M598.58,644c10.13-13.39,25.38-20.08,39-28.63,17.76-11.19,33.38-25.91,53.51-33.26,1.32,5.83-3.51,7.46-7,9.74Q645.26,617.47,606.31,643A8.05,8.05,0,0,1,598.58,644Z"/><path class="cls-3" d="M1179.58,797.27c-3-16.61-8.82-32.78-7.84-50l9-3.29c1.16,14.42,8.54,27.71,7.27,42.65-.57,6.78,6,6.32,10.38,7.69C1193.71,805.19,1185.89,796.43,1179.58,797.27Z"/><path class="cls-3" d="M421.79,953.38c.95-1.87,1.41-4.41,2.93-5.53,22.79-16.85,25.76-38.2,14.67-62.9,17.69,12.22,16.06,47.16-3.32,61.88C432.06,949.89,428.28,955.07,421.79,953.38Z"/><path class="cls-4" d="M533.86,563.85c-.21,3.19-.41,6.38-.62,9.54-3.06,3.75-5.55,8.57-11.16,8.73-6.32.18-15.27,3.94-18.24-2.4-3.83-8.14,7.24-7.16,11.2-10.29C519.91,565.58,524.7,555.26,533.86,563.85Z"/><path class="cls-3" d="M538.07,1112.65c.41,5.26-9.47,7.57-4.59,13.63,5.88,7.31,15.32,6.56,23.49,7.79,4.38.66,9-3.35,13.93-1.23-5.87,12.3-16,8.68-25.52,6.59-3.59-.79-6.73-3.69-10.33-4.47-7-1.51-13.77-4.63-12.88-12.14C523.1,1115,529.62,1111.16,538.07,1112.65Z"/><path class="cls-4" d="M1112.87,862.62c-4.4,17.62-17.91,29.6-27.32,44.11-1.85.15-3.69.32-5.54.48-2.37-7.8.72-13.6,7.14-17.6,8.4-5.23,9.25-11.9,4.83-20a17,17,0,0,1,1.61-1.57c8.07,3.7,12.05-4.55,18.27-6.26Z"/><path class="cls-3" d="M773,1120.9c6.68-19.73,6.92-39.32-1.26-58.73C790.88,1077.29,791.55,1108.84,773,1120.9Z"/><path class="cls-3" d="M733.9,444.62c1.43,7.58-1.39,14-5.41,20.14-4.45-3-3.59-13.17-12.92-9.51-1.8-2.7.89-11.38-7.55-5.21-3.6,2.64-7.65,5.44-12.7,5.08,7.57-11.19,15.94-19.75,30.79-10.94C728.1,445.36,731.27,444.52,733.9,444.62Z"/><path class="cls-3" d="M767,1056.67c-17.11-11.29-35.75-15.42-56-12,10.87-11.62,28.15-11.27,47.51,1.47C762.15,1048.57,767.9,1050.15,767,1056.67Z"/><path class="cls-3" d="M432.7,878.11c-18.76-10.09-37.25-7.63-55.61,1.19C390.78,860.87,420,860.24,432.7,878.11Z"/><path class="cls-3" d="M615.76,1161.28c7.18,7.09,13.48,5.83,20.33-1.07,4.75-4.78,8.42-11.65,16.6-11.83-4.23,12.72-15.05,20.62-25.25,26.21C618.6,1179.45,614.8,1170.26,615.76,1161.28Z"/><path class="cls-3" d="M484.66,921.18c.42,4.39-.9,9.71,5.76,10.76l.38.21,4.41,8.53c-.49.51-1,1-1.42,1.56L494,942l-14.19-.76-18-.36Z"/><path class="cls-3" d="M377.1,879.34c-.3,4.18-3.16,7-6.16,8.94-9.91,6.34-13.38,13.62-5,23.62-20-8.69-20.35-10.94-3.63-23.92C366.87,884.46,369.86,878.26,377.1,879.34Z"/><path class="cls-6" d="M502.71,968.54c-.12-4.58-2.38-10.62,5.38-10.81,6.77-.16,11,4.14,12.47,10.46,1.58,6.73-2.6,8.47-8.34,8.2C507.92,975.14,505.28,971.89,502.71,968.54Z"/><path class="cls-3" d="M991.92,812.14c6.11,1,6.5,6,7.44,10.58L992.3,834.2c-8.13-7-17.47-13-21.44-23.78,5.7-1.2,8.21,3.58,11.76,6.36C989.08,821.84,990.43,816.91,991.92,812.14Z"/><path class="cls-6" d="M368,925.58c7.23-5.09,11.71-.44,16,4.57,2.64,3.07,4,6.55,1.33,10.19-4.69,6.47-9.55.8-14.34,0-.46-.74-.91-1.49-1.33-2.25.23-3.43-1-6-4.43-7.08Z"/><path class="cls-3" d="M587.35,1069.75c-7.63,13.83-19.59,22.48-33.91,28.3C560.88,1084,573.56,1076.2,587.35,1069.75Z"/><path class="cls-3" d="M665.54,471.25c-9.8,13.43-24.19,20.32-38.63,27.15C635.91,483.84,649.14,475.29,665.54,471.25Z"/><path class="cls-6" d="M614.86,1033.57c2-4.38-2-12.51,6.28-12.78,5.7-.19,10.37,4.93,11.08,10.12,1.23,9.12-6.57,7.89-12.31,8.42Z"/><path class="cls-3" d="M471.75,1010.06c-8.54,11.57-18,22.07-32,27.18C447.32,1024.55,456.28,1013.47,471.75,1010.06Z"/><path class="cls-3" d="M1135.77,872.45c7.41-8.92,10.56-22.18,24.67-24.29C1158,862.09,1149.2,869.65,1135.77,872.45Z"/><path class="cls-3" d="M444.93,1063.89c13.06-1.92,26.69.35,39.23-5.36C476.06,1070,457.87,1072.52,444.93,1063.89Z"/><path class="cls-3" d="M327.18,921.35c-7.12,10.25-16,18.94-25.06,27.38C305,934.59,312.19,924.4,327.18,921.35Z"/><path class="cls-6" d="M1279.6,737c.59-9.74,14.22-9.26,14.3-19.77,4.6,2.71,5.39,6.7,6.75,10.34-2.91,5.63-8.17,8.27-13.57,10.73l-6.39,0C1280.33,737.9,1280,737.45,1279.6,737Z"/><path class="cls-3" d="M563.8,911.55l-1.14-5c14.55,1.82,20.19,11.18,20.89,24.71l-6.32-3.71a24.52,24.52,0,0,0-1.05-2.61l-2.65-3.4-3.24-3.41-3.28-3.3Z"/><path class="cls-3" d="M502.69,1091.07c7.79,2.44,5.78,17.5,18.12,14.06,0,4.88-2.28,8.23-7.08,9.09s-6-3.53-7.52-6.72C503.71,1102.35,500,1097.38,502.69,1091.07Z"/><path class="cls-3" d="M709.49,498.1c-2.85-11.87-.47-22.89,5.32-33.38C721,477.11,715.87,487.7,709.49,498.1Z"/><path class="cls-3" d="M324.68,988.06c-9.52,15.21,10.05,11.5,12.36,19-10.46,5.09-17.78-2.18-22-8.78C311.75,993.16,316.8,987.29,324.68,988.06Z"/><path class="cls-3" d="M592.58,1120.77c7-9.87,15.26-18.12,27.38-21.44Q611.79,1117.08,592.58,1120.77Z"/><path class="cls-3" d="M438.94,960.81l-24.52,24.38C415.56,970,425.13,963.28,438.94,960.81Z"/><path class="cls-3" d="M568.76,1063.83c4.67-10.24,14.12-14.45,23.56-18.66C587.83,1055.64,581.4,1063.66,568.76,1063.83Z"/><path class="cls-3" d="M659.44,1141.8a43.72,43.72,0,0,1,25.46-20.51C679.54,1132,671.71,1139.66,659.44,1141.8Z"/><path class="cls-3" d="M352.63,918.81c-9.31-7.48-17.23-1-25.44,2.53.56-8.86,7.7-11.59,14.18-12.39C346.78,908.29,353.1,910.72,352.63,918.81Z"/><path class="cls-3" d="M428.82,1046.05c-2.63,9.18,7.77,10.5,10.08,16.7-9,3.53-14.21-3.28-17.67-8.81C418.63,1049.78,424.1,1046.77,428.82,1046.05Z"/><path class="cls-3" d="M499,988.12c-4.9,7.82-9.78,15.66-20.7,15.39C482.45,994.63,487.25,986.68,499,988.12Z"/><path class="cls-3" d="M520.83,1105.11c5.7-9,12.08-17.12,23.59-18.84C539.93,1096.78,532,1103,520.83,1105.11Z"/><path class="cls-6" d="M573.79,987.3l-6.22.41c3.67-9.63,5-20.55,14.68-26.9l1.25,0,1.25,0c-.34,2.18-.69,4.37-1,6.55-3,1.68-3.55,4.45-3.3,7.56l-3.61,8.76-3,3.54Z"/><path class="cls-3" d="M754.29,425.21c-4,8.13-15.69,5-19.67,13.26C733.3,428.68,741.41,423.21,754.29,425.21Z"/><path class="cls-3" d="M541.14,585.8c10.1,4,12.63,13.79,17,22.16C546.4,605.25,543.57,595.68,541.14,585.8Z"/><path class="cls-3" d="M307.42,980.44c3.89-8.81,11.05-13.55,20-16C324.84,974.85,316.76,978.44,307.42,980.44Z"/><path class="cls-3" d="M365.21,931c3.46,1.11,4.66,3.65,4.43,7.08l-12.41.06c.55-6.85-1.65-13.07-4.44-19.15C363.09,916.6,357.23,930.94,365.21,931Z"/><path class="cls-3" d="M353.39,964c-3.81,8.78-11.08,13.39-19.73,16.34C336,969.76,344.08,966.14,353.39,964Z"/><path class="cls-3" d="M558.47,608.4c8.48,4.46,13.77,11.14,14.62,20.92C563.93,625.35,559.21,618.27,558.47,608.4Z"/><path class="cls-3" d="M693,456c-4.82,7.87-12.55,10.44-21.07,11.55C675.47,457.36,683.32,455,693,456Z"/><path class="cls-3" d="M1171.83,819.59c4.27-3.31.42-11.15,7.27-13,4,8.5,3.91,15.77-6.1,20Z"/><path class="cls-3" d="M301.89,954.19c3,8.61,1.7,17.57,2.19,26.39C297.27,972.29,294.54,963.66,301.89,954.19Z"/><path class="cls-3" d="M339.76,953.68c3.55-7.63,8.17-14.07,17.31-15.44C354.25,946.69,349.4,952.87,339.76,953.68Z"/><path class="cls-3" d="M714.58,563.32c-6.75-5.5-7.51-12.49-5-20.29C714.88,548.89,720.71,554.63,714.58,563.32Z"/><path class="cls-3" d="M581.13,637.89c5.76,1.2,8.89,7.86,15.43,7.43,0,4.89-2.95,6.9-7.24,6C582.26,649.75,580.86,644.2,581.13,637.89Z"/><path class="cls-3" d="M671.59,1154.22c-3.18,8.55-10.5,11.74-18.38,14.21C655.06,1158.16,663.16,1156,671.59,1154.22Z"/><path class="cls-3" d="M584.57,940.62c7.66,6.67,8.22,13.4.18,20.21l-1.25,0-1.25,0q.18-8,.34-16.06Z"/><path class="cls-3" d="M576.9,1131.7c3.16-6.41,9.74-7.92,15.41-10.72C590.36,1129.13,586.75,1134.9,576.9,1131.7Z"/><path class="cls-3" d="M486.77,1057.38c3.5-7,10-9.68,16.81-12C501.89,1054.88,495.94,1058.38,486.77,1057.38Z"/><path class="cls-3" d="M693.86,1189.13c3.56-7.11,10-10.06,17.16-12.14C708.6,1185.7,703.26,1190.27,693.86,1189.13Z"/><path class="cls-6" d="M1266.29,749.49c.2-8.67,5.17-12.26,13.31-12.47.37.43.73.88,1.08,1.32-1.23,2-2.47,4-3.7,5.95C1273.25,745.69,1271.56,751.26,1266.29,749.49Z"/><path class="cls-6" d="M584.57,940.62l-2,4.13c-8.85-3.54-4.8-11.1-5.36-17.22l6.32,3.71Z"/><path class="cls-3" d="M666.05,969.8c-5.89,1.13-10.11-1.56-13.57-6C660.42,958.06,663.41,963.53,666.05,969.8Z"/><path class="cls-3" d="M690.49,1020.65c-1.62-4.62-2.33-9.24.07-13.84C696.76,1011.45,696.45,1016.07,690.49,1020.65Z"/><path class="cls-3" d="M646.41,963a23,23,0,0,1-14.2-.09C637,955.49,641.72,955.36,646.41,963Z"/><path class="cls-3" d="M638.65,1189c5.49-1.89,8.49.87,10.47,5.57C642,1199.43,641.09,1192.81,638.65,1189Z"/><path class="cls-3" d="M364,955c-1.74,5.09-4.44,9.06-10.58,9C354.26,957.82,357.31,954.28,364,955Z"/><path class="cls-3" d="M693.59,580.88c2.59-4.6,5.18-9.22,11.81-7C703.38,579.44,700.68,583.86,693.59,580.88Z"/><path class="cls-3" d="M754.37,1138.92c2.15-3.93,4.61-7.43,9.79-7.29C763.27,1137.25,762.12,1142.52,754.37,1138.92Z"/><path class="cls-4" d="M1093.16,430.92c-2.05,5.17-5.55,7.91-11.36,6.8C1084.63,433.84,1086.47,428.33,1093.16,430.92Z"/><path class="cls-3" d="M690.15,998.28c-4.5-2.72-9.6-5.12-6.12-11.93C688.55,989.06,692.84,991.88,690.15,998.28Z"/><path class="cls-3" d="M622.9,964.18c-1.91,4.72-5.2,6.86-10.35,5.53C614.55,965.15,615.78,959.15,622.9,964.18Z"/><path class="cls-3" d="M1206.74,788.7c2.4-4.74,5-9.22,11.56-7.13C1216,786.42,1213.24,790.62,1206.74,788.7Z"/><path class="cls-3" d="M621.45,1117.86c2.31,5.64-.61,8.55-5.45,10.45C610.88,1121.21,617.7,1120.34,621.45,1117.86Z"/><path class="cls-3" d="M1255.27,758c-.26-1.16-.51-2.32-.76-3.47,4.25-.89,7.42-5.08,12.3-4C1266.35,758.27,1260,757,1255.27,758Z"/><path class="cls-3" d="M580.41,974.94c-.25-3.11.28-5.88,3.3-7.56a5.11,5.11,0,0,1,1.8,6.9C584.36,976.56,582.38,976.82,580.41,974.94Z"/><path class="cls-3" d="M1112.34,891.88l9.69-3.59c0,6.3-4.31,7.1-9.2,7.09-.13-1.21-.26-2.42-.38-3.63Z"/><path class="cls-4" d="M1148.34,395.32c-1.39,5.1-4.87,7.14-10,6.8C1139.52,396.66,1143.94,396,1148.34,395.32Z"/><path class="cls-3" d="M546.48,1104.81c-.68,4.81-4.32,6.44-8.29,7.72C537.23,1106,541.86,1105.38,546.48,1104.81Z"/><path class="cls-6" d="M1171.83,819.59l1.17,7c-1.36,2.37-2.92,4.47-6,4.39C1163.84,825.16,1166.76,821.91,1171.83,819.59Z"/><path class="cls-3" d="M1277,744.29c1.23-2,2.47-4,3.7-5.95l6.4,0C1285.72,743.7,1281.67,744.53,1277,744.29Z"/><path class="cls-3" d="M372.08,995.73c1.2-3.23,3.22-5.54,6.81-6.09C379.54,994.92,377.19,996.87,372.08,995.73Z"/><path class="cls-3" d="M361.93,1001.41c2-2.92,4.61-4.51,8.24-4.09C369.34,1002.55,366.58,1003.89,361.93,1001.41Z"/><path class="cls-3" d="M350.22,1006.83c1.51-2.81,3.91-3.49,6.85-2.85C356.29,1008.54,354.74,1011.25,350.22,1006.83Z"/><path class="cls-3" d="M684.82,1039.25c-.16-2.93.75-5.2,3.79-6.17C692.73,1038.45,689.19,1039.1,684.82,1039.25Z"/><path class="cls-3" d="M331.58,981.65c-1.24,3.13-3.13,5.55-6.66,6.21C324.31,982.75,326.35,980.5,331.58,981.65Z"/><path class="cls-3" d="M714.71,1174.21c.24-4.31,2.72-6.2,6.84-6.31C721.35,1172.26,718.89,1174.17,714.71,1174.21Z"/><path class="cls-3" d="M689,1138.69c-.62,4-2.9,6.12-7,6.06C682.26,1140.31,684.5,1138.16,689,1138.69Z"/><path class="cls-3" d="M653.11,1168.53c-.51,4-3,5.88-6.88,6.21C646.05,1169.93,648.23,1167.73,653.11,1168.53Z"/><path class="cls-3" d="M682.14,1194.92c1.26-2.94,3.29-4.53,6.65-3.87C688.27,1195.27,687.17,1198.48,682.14,1194.92Z"/><path class="cls-4" d="M1125.91,410.29c-1,4-3.7,5.33-7.59,4.74C1119.41,411.16,1121.67,409.13,1125.91,410.29Z"/><path class="cls-4" d="M1073.4,443.64c-1.07,3.37-3.45,4.83-6.91,4.71C1067.13,444.33,1068.85,441.91,1073.4,443.64Z"/><path class="cls-6" d="M1112.45,891.75c.12,1.21.25,2.42.38,3.63-1.11,1.3-2.23,2.6-3.34,3.91C1103.83,894.17,1107.39,892.67,1112.45,891.75Z"/><path class="cls-3" d="M573.82,987.24l3-3.54Z"/><path class="cls-7" d="M1238.64,1038.9c-22.08,33.83-48.17,64.86-76.37,93.73-14.37,14.72-29.3,28.88-44.55,42.68-12.77,11.56-24.37,22.9-38.84,32.23l-6,3.84c-33,21.23-65.42,39.74-101.5,55.28a669.55,669.55,0,0,1-123,39.77,640.25,640.25,0,0,1-123.16,14.49,625.54,625.54,0,0,1-62.59-2c-19.72-1.62-40.73-7.93-60.32-7.93-5-.9-9.94-1.94-14.92-2.89a706.67,706.67,0,0,1-98.66-28C346.11,1228.36,226.82,1114,160,978.68c-27.68-56.07-46.38-116.36-57.72-177.78-5.2-28.12,18-21.1,34-12.06,7,4,16.15,6.76,22.92,2.33,4.57-3,6.73-8.48,8.63-13.61q62.49-169.39,125-338.78c1.14-3.08,2.24-6.66.57-9.49-1.29-2.19-3.86-3.21-6.24-4.09L105.82,358.58c-11.53-4.24-14.46,3.36-18.93,13.12C75.82,395.87,61.3,418,51.09,442.56c-10.86,26.09-18.24,53.1-25.95,80.21A667.94,667.94,0,0,0,22.8,877.32c41.48,153.67,139.45,290.2,271.36,379.22q4.32,2.91,8.68,5.75,11.93,7.77,24.17,15a642.32,642.32,0,0,0,162.39,68c72.45,19.13,147.73,28.69,222.67,24.7a594.63,594.63,0,0,0,111.26-16.43c45.89-11.38,88.74-31,132.48-48.43,13.92-5.54,27.16-12.86,40.23-20.13a507.14,507.14,0,0,0,69.34-44.17c43.46-32.71,82.13-71.43,117.53-112.63,33.71-39.25,65.67-81.72,80.85-131.18Q1252,1018.44,1238.64,1038.9ZM265.79,505.74a19.65,19.65,0,0,0-1.65,1.23A19.65,19.65,0,0,1,265.79,505.74ZM201.11,675.15a28.45,28.45,0,0,0-2.59,5.93A28.45,28.45,0,0,1,201.11,675.15ZM7,642.33a32.67,32.67,0,0,1-1.73,4.25A32.67,32.67,0,0,0,7,642.33ZM5.51,761.18A23.35,23.35,0,0,1,9,774.31,23.35,23.35,0,0,0,5.51,761.18ZM83.11,726c-.19-14.78,12.66-27.57,28-27.84,14.74-.27,28.06,12.6,28.13,27.16.06,15-13,28.71-27.27,28.58C97.89,753.73,83.3,739.61,83.11,726Zm17.3,89.38a23.14,23.14,0,0,0,.49,6A23.14,23.14,0,0,1,100.41,815.34Zm194.13,345.74h0l.1.15Zm216.7,187.24a779.74,779.74,0,0,0,92.83,15.78A779.74,779.74,0,0,1,511.24,1348.32Z"/><path class="cls-8" d="M139.23,725.28c.06,15-13,28.71-27.27,28.58-14.07-.13-28.66-14.25-28.85-27.9-.19-14.78,12.66-27.57,28-27.84C125.84,697.85,139.16,710.72,139.23,725.28Z"/><path class="cls-2" d="M993.72,553.46c-.11-15.53,14.57-16.42,23.13-23.36l6.44.37-1.41,6.77c-2.7,6-1.4,9.45,5.83,9.08a4.3,4.3,0,0,1,2.47,1.51c0,12.84,9.83,7.74,16.23,8.92.73,2.5.37,5.54,3.38,6.93,4.58,5.3,9.19,11.81,13.44-.26,3.22-2.41,3.35-6.18,4.2-9.62,12.13-2.87,19.74-14,31.69-17.26,1.71,5.86-4.07,14.74,6.82,16.89l6.52,6.29-.06,13.63-3.18,3-3.4,3.15a10.53,10.53,0,0,1-2.73.45c-4.32-.34-6.84,1.49-7.16,6l-29.22-.05-6.06-3.92c-1.55-1.87-3.21-2-5-.31a4.83,4.83,0,0,0-2.71,1l-3.37,3.37a5.77,5.77,0,0,0-1.19,2.93c-3.27,5.88-1.39,10.7,4.42,12.62,5.21,1.71,11.76,3.24,13.76-5.22h0c21.34,1,41.82-.51,59.91-14.29s38.12-24.86,58.74-34.64a19.67,19.67,0,0,0,.85-2.93c18.64-13.07,36.7-27,56.82-37.89l.94.9c3.92,12.84,8.75,25.53,6.52,39.39-4.68.12-9.62-.12-9.77,6.65l-6.51,3.17-3.44,3.19-6.45,3.42c-4.68,0-9.6.25-9.91-6.49,8.79-8.55,22-12.14,28.31-23.89-4.3-3.39-6.94-1.35-9.79.37-27.33,16.46-55.29,32-81.81,49.65-13.18,8.78-30.17,12.88-38.58,28.29l-9.78.08c-1.46-1.24-2.63-.94-3.54.68-1,1.3-2.06,2.59-3.08,3.89-3.34.24-8.24,1-7.54,4.39,1.12,5.42,3.12,11.9,11.08,11.66l-.12.21c-.22,4.08,0,8.35-4.41,10.72-4.2-2.4-9-4.18-12.49-7.33-9.54-8.53-21.5-12.3-32.66-17.61-6.19-2.94-12.89-3.06-18.63,1.25-6.77,5.09.69,9.45,1.24,14.2.67,5.91,1.16,11.84,1.73,17.77-6.48,5.14-11.1-6.33-17.49-2v.08c-3.55-6.46-7.68-12.74-6.44-20.68l.81-18.93c9.44-2.93,4.75-10.91,6-16.77,8.8-1,6-8,6.63-13.11,4.55-.42,6.61-2.9,6.28-7.46-.29-4-2.91-5.33-6.42-5.65l-6.16-.39q-8.53-14.82-17,0C995.19,563.58,999.58,555.84,993.72,553.46Z"/><path class="cls-4" d="M1099.12,536.54c-11.95,3.21-19.56,14.39-31.69,17.26l-4.52-5.26c3.54-11.13,14.22-13.48,22.74-18.47,6.37-3.73,14-6.3,13.91-15.77,4-.94,7.93-1.88,3.21-6.88-.62-6.54-3.39-6.72-8.46-3.48-15.77,10.1-31.75,19.88-47.65,29.77a10.83,10.83,0,0,1-6.52-6.43c14.17-11.63,30.3-20.3,45.46-30.4,26.87-17.92,56.69-31.61,80-54.68a9.38,9.38,0,0,0,2.57-.46c9.06.28,13.5-5.72,17.24-12.67a7.23,7.23,0,0,0,2.48-.43c7,.13,10.7-6.19,16.58-8.31s11.41-3.8,13,5l-3.32,6.39c-8.76,1.22-15.65,5.4-20.43,12.91a8.21,8.21,0,0,0-2.51.42l-3.61,3.31c-4.79,4.15-12.77,3-16.08,9.63l-4.13,3.09c-16.18,7-30.6,17-45.13,26.83-6.68.39-8.82,5.54-9.89,10.66-.75,3.6-5.35,8.35.07,11.22,4.69,2.49,7.68-1.47,9.84-5.39,8.36.2,13.79-5.32,19.63-10.06a10.88,10.88,0,0,0,6.38-6.68l.11-.13c4.76.11,8.15-1.92,10-6.39,7.92-4,16.47-6.93,22.83-13.54,4.1.15,6.58-1.6,6.94-5.87h0c5.44-.09,10.36-1.14,12.72-6.9,4.65-.16,8-2.22,10-6.51l3.29-.8,10.11.06.54,7.37-10.65,9.7c-19,8.74-37.3,18.6-53,32.65-6.49.85-10.08,5.14-12.63,10.66C1128.74,511.64,1114,524.19,1099.12,536.54Z"/><path class="cls-6" d="M1240.6,553.51c.15-6.77,5.09-6.53,9.77-6.65,9.61,12.38,20.57,24.31,7.78,41.21-1.87,2.47-.73,7.23-1,10.93-5.78.2-9.91,3.61-14.53,6.63-26.92,17.56-54.12,34.69-81.17,52-4.13,2.65-8.54,6.94-12.3.64-2.89-4.86-.37-9.45,4.29-12.56,3.16-2.12,6.25-4.35,9.46-6.39,28-17.78,56.11-35.45,84-53.41,3.73-2.39,10.92-4.93,7.41-10.5-3.14-5-8.52-1-12.81,1.75-31.08,20.12-62.38,39.92-93.37,60.19-8.44,5.52-17.93,11.41-11.66,24.36-16.47-8.57-17.19-13.59-4.43-25.21,6.9-6.29,14.65-11,22.55-15.86,29.58-18.16,58.8-36.92,88-55.61,3-1.93,7.35-4,6.22-8.58C1247.87,552.37,1243.64,553.87,1240.6,553.51Z"/><path class="cls-3" d="M1136.52,661.76c-6.28-13,3.21-18.84,11.65-24.36,31-20.27,62.29-40.07,93.37-60.19,4.29-2.78,9.67-6.72,12.81-1.75,3.51,5.57-3.68,8.11-7.41,10.5-27.91,18-56,35.63-84,53.41-3.21,2-6.3,4.27-9.46,6.39-4.66,3.11-7.18,7.7-4.29,12.56,3.76,6.3,8.17,2,12.3-.64,27-17.36,54.25-34.49,81.17-52,4.62-3,8.75-6.43,14.53-6.63a11.37,11.37,0,0,0,2.63.71c-.54,7.68-6.35,10.69-12,14.31-28.92,18.55-57.68,37.35-86.5,56.05l-8.33,0C1146.24,669.79,1142.43,663.71,1136.52,661.76Z"/><path class="cls-5" d="M1165.64,442.2c-23.35,23.07-53.17,36.76-80,54.68-15.16,10.1-31.29,18.77-45.46,30.4l-9.87-1.31c0-1.74.06-3.47.1-5.2q51.41-33.11,102.78-66.28c3.74-2.42,11.35-4.1,7.62-10.18-3.61-5.89-8.43-.42-12.44,2.1-8.34,5.24-17.09,9.33-32,8.74l52.19-30.24c0,1.17,0,2.33.07,3.49C1145.6,443.71,1157.26,440.93,1165.64,442.2Z"/><path class="cls-4" d="M1112.46,559.72l-6.52-6.29c-.06-9.56,3.2-14,13.76-17.62,14.28-4.87,30-10.38,38.71-25.09l19.81-9.7c14.38-8.29,29.38-15.75,40-29.18l5.89-.73,3.77-2.88,8.93.57a5.2,5.2,0,0,0,0,2.57c-.21,3-.43,6-.63,9.07a8.16,8.16,0,0,0-2.29.45l-3.89,3.22a6.82,6.82,0,0,0-2.61.36c-35.45,22.23-74.78,38.88-103,71.59C1121.32,559.74,1116.88,559.87,1112.46,559.72Z"/><path class="cls-2" d="M1142,494.34c-5.84,4.74-11.27,10.26-19.63,10.06q0-8.25,0-16.49c14.53-9.81,29-19.8,45.14-26.82l4.12-3.1c3.31-6.64,11.29-5.48,16.08-9.64l3.61-3.3a7.91,7.91,0,0,1,2.51-.41c6.7.65,11.48-4,17.15-6.18q0,3.21,0,6.42c0,1.15,0,2.29,0,3.44-2,4.29-5.36,6.35-10,6.51-5.08.74-12.25-2.35-12.72,6.9h0q-6.37-.5-6.94,5.87c-6.36,6.61-14.91,9.54-22.83,13.54-4.69,0-9.5-.18-10,6.39l-.11.13Q1142,488,1142,494.34Z"/><path class="cls-6" d="M1161.31,670.08c28.82-18.71,57.58-37.51,86.5-56.06,5.64-3.62,11.45-6.63,12-14.31,12.5,5,3.41,13,0,15.27-30.17,20.33-61,39.72-91.7,59.22-1.65,1-4.26.56-6.43.79C1161.58,673.35,1161.44,671.72,1161.31,670.08Z"/><path class="cls-3" d="M1240.92,717.14c0,2.38,0,4.76-.05,7.13-4.62,3.57-4.28,6.81.62,9.76q-.36,3.63-.74,7.25c-8.33.88-9.2-9.62-16.26-10.67-3.57-15.05-12.06-18.79-25.52-11.11-6.34-.49-10.86-4.17-15-8.54q.48-3.15.94-6.3c2-.62,3.95-1.25,5.93-1.86,1.07,3.14.71,9.62,6.44,4.71,12.29-10.52,21.9-4,31,4.2C1232.16,715.14,1235.41,718.32,1240.92,717.14Z"/><path class="cls-5" d="M1184.92,704.66,1184,711c-10.7,3-2.86,13.86-7.76,19.52-6.25-13.87-11.52-27.81-20.34-39.9-4.69-6.44-7.72-12.83-2.91-20.49l8.33,0c.13,1.65.27,3.28.4,4.92C1159.16,688.58,1170.52,703.1,1184.92,704.66Z"/><path class="cls-4" d="M1240.92,717.14c-5.51,1.18-8.76-2-12.58-5.43-9.15-8.22-18.76-14.72-31-4.2-5.73,4.91-5.37-1.57-6.44-4.71.26-1.51.53-3,.79-4.5,5.27,0,9.93-1.26,12.77-6.24l13.1-.08c4.72,6.65,11.68,8.76,19.3,9.56l.25.18,2.83,3s.18.56.17.57Q1240.48,711.23,1240.92,717.14Z"/><path class="cls-2" d="M1236.83,468.8l-8.93-.57-3.77,2.88-5.9.72c-3-1.47-3.92-4.08-4-7.18l10.64-9.7c6.27-.83,5.73-5.58,5.76-10,2.61-5.32,6.13-7.28,11.74-3.75,6.89,4.33,0,6.9-1,10.32C1239.66,457.21,1238.33,463,1236.83,468.8Z"/><path class="cls-5" d="M1217.54,425.33c-1.62-8.8-7.06-7.15-13-5s-9.61,8.44-16.58,8.31c1.22-9.75,5-17.16,15.84-19.19,7.53-1.41,13.57.17,18.79,6.07C1229.7,423.61,1225.47,425.27,1217.54,425.33Z"/><path class="cls-2" d="M1236.21,480.44c.21-3,.43-6.05.64-9.07,10.53-.52,17.29,5.12,11.88,14.32-4.41,7.51,9.29,17.83-4.88,21.78l-.94-.9c1.65-7.6-3-8.94-9-8.9,0-4.12,2.11-6.92,5.26-9.47C1245.8,482.88,1240.56,481.74,1236.21,480.44Z"/><path class="cls-6" d="M1148.61,428.4c0-1.16,0-2.32-.07-3.49,12-10.53,24.55-20.15,39.92-25.34-.31,6.87-1.88,11-10.29,13.41C1167.7,416,1158.41,423.07,1148.61,428.4Z"/><path class="cls-2" d="M1135.49,178.78c9.3,5.22,13.66,14.73,19.77,22.72C1142.88,202.73,1136.57,195.47,1135.49,178.78Z"/><path class="cls-6" d="M1236.81,701.54c-7.62-.8-14.58-2.91-19.3-9.56C1229.53,683.88,1231.71,695.65,1236.81,701.54Z"/><path class="cls-2" d="M1194.73,369.51c-.12-3.26-.25-6.52-.37-9.77,4.41-1.19,10.66-7.52,12.36,1.28C1208.21,368.75,1200.72,369.33,1194.73,369.51Z"/><path class="cls-5" d="M1210.94,438.46c-5.67,2.17-10.45,6.83-17.15,6.18,4.78-7.52,11.67-11.7,20.43-12.92C1214.24,434.5,1213.63,437,1210.94,438.46Z"/><path class="cls-6" d="M1204.41,692.06c-2.84,5-7.5,6.25-12.77,6.24C1191.28,686.77,1196.06,685.76,1204.41,692.06Z"/><path class="cls-5" d="M1185.45,429.07c-3.74,6.95-8.18,12.95-17.24,12.67C1172.6,435.67,1176.27,428.63,1185.45,429.07Z"/><path class="cls-5" d="M1230.66,444.94c0,4.43.51,9.18-5.76,10q-.26-3.68-.53-7.37Z"/><path class="cls-6" d="M1239.89,704.75l-2.83-3Z"/><path class="cls-5" d="M1211,448.32c0-1.15,0-2.29,0-3.44l3.27,2.65Z"/><path class="cls-8" d="M991.92,812.14c-1.49,4.77-2.84,9.7-9.3,4.64-3.55-2.78-6.06-7.56-11.76-6.36-9.41-8.7-19.06-17.23-24-29.59,1.18-3,1.6-6.49,5.13-8l8.36,4.78,3.5,3.29,9.58,10c.69,1.92,2,2.94,4.1,2.64l6.7.06a5.36,5.36,0,0,0,1.58,6.21c.26,1.4.53,2.8.8,4.2,1.06,1.13,2.12,2.28,3.18,3.43Q990.87,809.8,991.92,812.14Z"/><path class="cls-4" d="M879.23,504.43h19.15c7.66,9.78,21.49,8,30.06,16.12,14.82,11.83,20.18,29,25.75,46-1.86,5.51-4.51,10.89-5.43,16.56-4.74,28.92-22.37,45.26-49.84,52.4l-.27-9.51L925,602.64l1.82,4.29c.52-1.47,1-2.93,1.54-4.39l-.16.12c1.55-.46,3.8-.42,4.53-1.45,16.68-23.58,9.74-54.86-16.36-74.47-23-17.28-54.4-11.51-75.25,13.85-16.12,19.6-13,54.55,6.18,71.06,4.28,3.67,5.3.79,6.24-2.72,8,3.42,15,8,19.13,16.05-1,3.63-3.48,5.92-6.73,7.54a27.73,27.73,0,0,1-12.1-3.82c-19.71-10.68-27.2-29.49-33.82-49-2.77-32.07,11.12-54.66,39.36-69.06C866.87,511.31,873.75,510.12,879.23,504.43Z"/><path class="cls-5" d="M898.92,635.49c27.47-7.14,45.1-23.48,49.84-52.4.92-5.67,3.57-11.05,5.43-16.56l10.39,0c0,2.2,0,4.4,0,6.59-2.73,1.53-3.18,4.11-3.2,6.89-4.33,35.74-59.15,79.62-95.94,75.37-3.14-.36-6.44.61-9.66,1-12-.53-15.27-11.68-21-18.8-16.6-20.66-37.54-37.75-50.67-61.23,9.79,1.6,16,7.42,21.3,15.68,3.5,5.44,7.63,11.76,16.59,12.85-.44-8.78-11.09-16.62-1.91-25.2,6.62,19.53,14.11,38.34,33.82,49a27.73,27.73,0,0,0,12.1,3.82C876.46,638.94,888,634.3,898.92,635.49Z"/><path class="cls-5" d="M783.29,574.4c-10.75-5.06-16.95-14.7-23.85-23.64-5.72-7.4-12-10.7-20.5-3.55-2.52,2.13-5.12,7.23-9.16,3.72-2.9-2.52-1.55-7.1-.8-10.83,8.36,2.92,14.5-7.14,25.37-1.29C770,547.24,777.86,559.12,783.29,574.4Z"/><path class="cls-5" d="M728.52,533.55c-7.67-16.57-.3-32.86.94-49.26,2.72.9,5.51,2.66,4.81,5.53C730.75,504.2,733.6,519.4,728.52,533.55Z"/><path class="cls-5" d="M928.44,520.55c-8.57-8.08-22.4-6.34-30.06-16.12C910.38,506.11,925.07,502.76,928.44,520.55Z"/><path class="cls-5" d="M879.23,504.43c-5.48,5.69-12.36,6.88-19.82,6.19C865.61,507.26,870.17,498.64,879.23,504.43Z"/><path class="cls-9" d="M1069.81,785.8c-.52-8.61-19.24-1.78-13.38-15.79a6.47,6.47,0,0,1,.1-3c10.48-2.5,5.78-10.61,6.22-16.82l3.36-6.33c8.3-3.16,6.43-8.21,2.53-13.64q.27-3.12.55-6.26c13-4.48,5.36-15.29,6.79-23.15,1.33-7.28-2.13-17.44,1.69-21.83,6.68-7.69,10.59,7.59,18.22,6a13.86,13.86,0,0,1,3.21.07h0c0,2.84.88,5.19,3.79,6.28,1,1.09,2,2.18,3,3.26l3,3.59a10.88,10.88,0,0,1,.77,2.49c-.86,5.22,1.51,8.53,6.17,10.5,2.53,2.94,6.07,5.23,6.25,9.69-1.83,2.09-4.34,4.31,1,4.88l4.11,8.43c-1.53,5.56-3.42,11.27,5,13.06q.82,8.21,1.64,16.4c-.21.48-.69,1.06-.57,1.42a19.83,19.83,0,0,0,1.44,2.68c-.06,15.14,0,30.3-2.57,45.3-4.41.55-7.81,1.61-3.29,6.61l-2.67,10.1c-8.83,1.15-12.29-5.68-15.71-11.45-4.22-7.13-9.89-11-18-11.61h0c.22-4.57-2-6.75-6.53-6.61h0c-1-3.38,3.42-12.29-6.61-6.51C1074.37,793.11,1073.17,788.13,1069.81,785.8Z"/><path class="cls-4" d="M985.82,799.83a5.37,5.37,0,0,1-1.58-6.22c-.81-5.9,3.7-8.86,7.13-12.15,23.78-22.85,39.78-50.4,46.32-82.52,3.19-15.66,8.14-32.68-3.47-47.81-.57-5.93-1.06-11.86-1.73-17.77-.55-4.75-8-9.11-1.24-14.2,5.74-4.31,12.44-4.19,18.63-1.25,11.16,5.31,23.12,9.08,32.66,17.61,3.53,3.15,8.29,4.93,12.5,7.32.88,4.34,3.53,7.27,7.36,9.27,21.45,22.33,39.44,47.06,52.2,75.41.28,14.4,10.79,27.21,6.59,42.3-10.92-7.52-6.76-21.14-12.5-31-4-6.8-5.27-15.12-8.53-22.42-.91-2-3.82-.29-5.32,1.47-12.27-18.24-23.53-37.09-39.79-52.48C1084,655,1072.52,645.29,1059.12,638c-1.09-9.05-10.25-5.43-14.82-10.11C1061.7,698.31,1040.63,754.85,985.82,799.83Z"/><path class="cls-5" d="M1109.06,844.1c-.24,5.26-3.47,7.71-6.28,10.09-3.58,3-7,1.67-9.9-1.62-10-11.43-20.16-22.74-30-34.3-4.88-5.71-3.19-11.3,2.07-15.68,6.46-5.37,8.2,1.85,11.15,4.88,9.47,9.75,18.7,19.73,28.08,29.57C1106.38,839.37,1109.38,841.16,1109.06,844.1Z"/><path class="cls-6" d="M1045.4,832.48c2.67,1.51,4.41,2,5.37,3.1q16.47,19.18,32.69,38.56c2.36,2.81,2.63,5.92-.27,8.71-3.18,3.06-7.12,4-10.18.77-11.59-12.24-23.47-24.32-33.92-37.5C1033.29,838.81,1042.53,836.89,1045.4,832.48Z"/><path class="cls-6" d="M1099.1,685a13.86,13.86,0,0,0-3.21-.07c-7.63,1.63-11.54-13.65-18.22-6-3.82,4.39-.36,14.55-1.69,21.83-1.43,7.86,6.16,18.67-6.79,23.15-.15-22,1.89-44.1-2-70.11C1081.06,663.87,1091.12,673.24,1099.1,685Z"/><path class="cls-5" d="M1092.46,806.62c8.09.62,13.76,4.48,18,11.61,3.42,5.77,6.88,12.6,15.71,11.45-2,5.11-2.85,13.83-10.76,5C1107.32,825.74,1100.07,816,1092.46,806.62Z"/><path class="cls-6" d="M1062.75,750.16c-.44,6.21,4.26,14.32-6.22,16.82Q1059.63,758.57,1062.75,750.16Z"/><path class="cls-6" d="M1068.64,730.19c3.9,5.43,5.77,10.48-2.53,13.64C1066.37,739.17,1065.4,734.29,1068.64,730.19Z"/><path class="cls-4" d="M1054.38,731.35c-1.43-4.85-1-9,4.27-11.3C1060,724.87,1060.63,729.4,1054.38,731.35Z"/><path class="cls-4" d="M1132.17,747.17c-8.39-1.79-6.5-7.5-5-13.06Q1129.69,740.64,1132.17,747.17Z"/><path class="cls-5" d="M1079.31,793.5c10-5.78,5.6,3.13,6.61,6.51C1081.81,799.77,1079.67,797.54,1079.31,793.5Z"/><path class="cls-6" d="M1115.81,711.11c-4.66-2-7-5.28-6.17-10.5C1115.35,702,1116,706.3,1115.81,711.11Z"/><path class="cls-5" d="M1085.93,800c4.55-.14,6.75,2,6.53,6.61C1088.44,806.24,1086.15,804.15,1085.93,800Z"/><path class="cls-4" d="M1092,869.59a44,44,0,0,1-4.61-3.59c-.23-.23.57-2.32,1.12-2.44,3.47-.7,4.09,2.15,5.09,4.47A16.8,16.8,0,0,0,1092,869.59Z"/><path class="cls-4" d="M1128.82,819.58c-4.52-5-1.12-6.06,3.29-6.61C1132.3,815.81,1131.63,818.23,1128.82,819.58Z"/><path class="cls-4" d="M1079.19,852.8c-2.57-.56-5.25-1-5-4.62a1.61,1.61,0,0,1,1.07-1.08c3.63-.33,3.91,2.52,4.59,5Z"/><path class="cls-4" d="M1058.71,662.75c-3.49-1.61-5.81-3.81-4.08-8.07Q1060.82,656.62,1058.71,662.75Z"/><path class="cls-4" d="M1111.86,861.76l2-4.18c.4.35,1.21.88,1.15,1-.63,1.38-1.39,2.69-2.11,4Z"/><path class="cls-6" d="M1102.91,691.27c-2.91-1.09-3.76-3.44-3.79-6.28C1102.26,686,1102.88,688.43,1102.91,691.27Z"/><path class="cls-4" d="M1123.09,725.68c-5.37-.57-2.86-2.79-1-4.88C1122.4,722.43,1122.74,724.05,1123.09,725.68Z"/><path class="cls-4" d="M1079.9,852.08l1.26,2-2-1.29Z"/><path class="cls-6" d="M1108.87,698.12l-3-3.59Z"/><path class="cls-4" d="M1134.68,767.67a19.83,19.83,0,0,1-1.44-2.68c-.12-.36.36-.94.57-1.42C1134.11,764.94,1134.4,766.3,1134.68,767.67Z"/><path class="cls-9" d="M577.23,927.53c.56,6.12-3.49,13.68,5.36,17.22q-.17,8-.34,16.06c-9.69,6.35-11,17.27-14.68,26.9-1.35,2.95-3.08,5.52-6.43,6.49l-8.31.43a8,8,0,0,1-2.2-1c-5.11-11.86-6.39-26-20-32.71a4.74,4.74,0,0,1-.67-2.46,3,3,0,0,0-2.79-3.72H527c.44-5.21-1.83-7.31-7-6.09a5.64,5.64,0,0,1-2.4-.73c-3.18-15-18.81-8.93-26.78-15.81l-.38-.21c6.87-19.88,35.18-33.7,53.32-24.79,6.76,3.33,13.11,4.17,20.06,4.4l3.21,3.26,3.28,3.3,3.24,3.41,2.65,3.4A24.52,24.52,0,0,1,577.23,927.53Z"/><path class="cls-6" d="M530.63,961c13.61,6.66,14.89,20.85,20,32.71C538.53,986.09,528.36,977.33,530.63,961Z"/><path class="cls-6" d="M702.38,1114.27c-.75-8-.45-15.5,10.78-11.23,5.19,2,10.44,7.24,6.87,12.71-5.12,7.83-11.53,0-17.39-1.12Z"/><path class="cls-6" d="M490.8,932.15c8,6.88,23.6.8,26.78,15.81-7.25-3.06-15.86-2-22.38-7.28Q493,936.41,490.8,932.15Z"/><path class="cls-8" d="M479.77,941.25,494,942s0,.12,0,.12c2.63,10.86-6.19,5.08-9.87,6.79Q481.9,945.1,479.77,941.25Z"/><path class="cls-6" d="M552.83,994.63l8.31-.43C558.66,1000,556,1002.14,552.83,994.63Z"/><path class="cls-6" d="M520,948.69c5.15-1.22,7.42.88,7,6.09C523.2,954.39,521.35,951.81,520,948.69Z"/><path class="cls-6" d="M527.17,954.78A3,3,0,0,1,530,958.5C529,957.26,528.1,956,527.17,954.78Z"/><path class="cls-6" d="M493.91,942.13s0-.13,0-.12l-.17.23Z"/><path class="cls-5" d="M1034.22,651.13c11.61,15.13,6.66,32.15,3.47,47.81-6.54,32.12-22.54,59.67-46.32,82.52-3.43,3.29-7.94,6.25-7.13,12.15l-6.7-.06a3.47,3.47,0,0,0-4.1-2.63l-9.57-10a3.31,3.31,0,0,0-3.51-3.29L952,772.87C945.76,762,937.31,753,928.17,744.52c-5.89-5.44-8-10.17,1.2-14.61,5.58-2.69,8.06-7.3,4.38-13.34-3.32-5.46-9.88-8.13-13.9-4.6-18.74,16.48-22.39-3-30.52-11.93a54.74,54.74,0,0,1-3.79-5.22c-.26-3.94-2.07-6.47-6.21-6.92-5.64-4.41-10.54-9.46-13.74-16,.69-4.31,2.89-6.76,7.57-6.83,55.73-.92,110.81-59.43,104.44-126.41-.36-3.79-.22-7.62-.31-11.44l14.53.61c-7.83,9.53-7.83,20.68-7.69,32.29.53,42.63-15,77.18-52.52,99.86-6.19,3.74-11.65,10-20.7,6.08-3.61-1.54-7.26,1.42-8.28,5.89-5.83,5.64-3.32,11.15,2,14.27,7.49,4.44,11.14-2.18,14.76-7.35,42.73-19.66,70.11-50.83,74.42-99.29l6.77,3.56c1,1.16,2,2.33,3,3.49q.21,3.09.44,6.18-.35,11.34-.67,22.68c-4,.74-5.95,3.08-5.58,7.21-.12,1-.26,1.95-.42,2.93-.43.3-1.26.68-1.22.9a15.42,15.42,0,0,0,.93,2.56c-9.67,23.77-26.88,40.58-48.9,53-5.84-1.17-9.07,2.8-12.52,6.35-3.68,7.52-2.49,9.75,5.71,10.76,6.37.68,10.71-2.08,13.29-7.83,11-3.88,18.74-12,26.84-20,12.54-12.46,18.56-29,28.85-42.79-1.23,8,2.9,14.23,6.45,20.68-8,4.08-22.24,3.9-13.09,19.49-.74,20.84-26,46.15-48.81,49.09-4.43.57-12.17-1.84-12,4.72.26,8,8.41,4.71,13.14,4.65,25.24-.33,50.48-23.6,60.94-55.59,7.84-7.56,3.29-15-.23-22.43C1023.12,644.8,1027.74,656.27,1034.22,651.13Zm-16.47,68.19c5.32-2.51,11.65-5,9.51-12.3-1.06-3.61-3.69-8-8.89-8.43-6.28-.55-8.67,3.08-9.41,8.57-1.31,11-5,20.31-13.92,28-9.14,7.95-17.35,14.15-30.4,8.95-4.88-1.95-9,3.1-11.64,7.36-2.34,3.77-1.37,7.7,1.94,10.31,4.36,3.42,9.3,6.43,14.95,2.6C988.24,751.94,1008.45,741.41,1017.75,719.32Z"/><path class="cls-2" d="M991.82,527.86l-14.53-.61c-7.44-14.88-1.93-23.06,13.51-26.11.91,1.63,1.63,4.47,2.78,4.66,3.5.58,3.37-2.66,3.84-5a7.78,7.78,0,0,1,2.72-.22c8.43,2.64,12.47-8.31,20.59-6.63,0,0,0-.05,0-.05q0,8.58,0,17.14h0c-5-.37-9.85-.62-9.95,6.48l0,0c-7.44.22-15,.29-16.48,10.14A8.11,8.11,0,0,1,991.82,527.86Z"/><path class="cls-6" d="M1043.79,487.81c17.55-6.51,30.49-22.79,50.75-23.86-17.36,11.95-30.92,29.83-53.59,32.91Z"/><path class="cls-3" d="M919.34,678.9c-3.62,5.17-7.27,11.79-14.76,7.35-5.27-3.12-7.78-8.63-2-14.27C909.24,671.78,917.08,668.61,919.34,678.9Z"/><path class="cls-8" d="M1043.79,487.81l-2.84,9.05-12.63-.29-3.81-4.07C1029.82,486.37,1035.18,480.39,1043.79,487.81Z"/><path class="cls-6" d="M1000.53,583.18l-6.77-3.57c-4.67-8.71-4.41-17.43,0-26.16,5.85,2.39,1.46,10.13,6.69,12.84l1.13,1.13a26.83,26.83,0,0,0,.06,14.84Z"/><path class="cls-5" d="M1024.51,492.5l3.81,4.07c.46,6.4,7,16-7.61,14.45q0-8.56,0-17.14Z"/><path class="cls-5" d="M1020.73,493.93c-8.12-1.68-12.16,9.27-20.59,6.63l7.45-9.15C1012,492.33,1018.38,482.53,1020.73,493.93Z"/><path class="cls-6" d="M1030.37,520.77c0,1.73-.07,3.46-.1,5.2-1.11,3.4-3.78,4.37-7,4.5l-6.44-.37C1018.65,523.06,1024.18,521.45,1030.37,520.77Z"/><path class="cls-5" d="M994.22,527.61c1.51-9.85,9-9.92,16.48-10.14C1007.14,524,1001,526.33,994.22,527.61Z"/><path class="cls-5" d="M1010.73,517.5c.1-7.1,5-6.85,9.95-6.48C1020.13,517.42,1015.38,517.38,1010.73,517.5Z"/><path class="cls-4" d="M879.33,687.9c4.14.45,5.95,3,6.21,6.92C881.24,694.51,879.08,692.29,879.33,687.9Z"/><path class="cls-5" d="M997.42,500.78c-.47,2.36-.34,5.6-3.84,5-1.15-.19-1.87-3-2.78-4.66Z"/><path class="cls-9" d="M961.34,580c0-2.78.47-5.36,3.2-6.89C964.64,576,964.2,578.58,961.34,580Z"/><path class="cls-4" d="M989.8,807.46c-1.06-1.15-2.12-2.3-3.18-3.43C989,804,990,805.19,989.8,807.46Z"/><path class="cls-5" d="M1350.72,688.86c1.52-7,1.57-14.38,1.49-21.6-.75-66.67-9-133.56-28.88-197.33A681.92,681.92,0,0,0,1221.8,269.31a654.66,654.66,0,0,0-97.67-106.11C989.83,46.51,807.34-12.9,630.09,2.36s-346.91,105-459.3,242.89c35-42.89,85.82-78.56,132.41-107.52a692.41,692.41,0,0,1,156.56-72c61.83-19.54,125.75-29.12,190.42-32.07l143,19.66c26.36,11,54.29,16.57,81,26.83a573.63,573.63,0,0,1,73.31,34.3c98.6,54.88,180.62,138.25,233.18,238.17,2.49,4.75,5,10.06,3.75,15.28-1.37,5.76-6.81,9.46-11.83,12.61l-96.45,60.38c-15.54,9.73-32.47,21.38-36.13,39.35l155.6-93.31q-22.73,25.77-45.43,51.55c12.81,6.88,26.87-5.63,37.7-15.35s31.43-15.52,37.07-2.11c-8.37,2.26-12.84,13.45-8.33,20.86s16.49,8.59,22.35,2.19q11.28,72.29,22.55,144.58c1.25,8.06,2.41,16.77-1.38,24-3.27,6.23-9.61,10.14-15.66,13.74l-58.8,35c-7.24,4.31-14.83,9-18.74,16.44s-2.25,18.5,5.51,21.79,15.91-2.36,23.65-5.49c15.85-6.39,35.57-1.39,46.46,11.78s12.09,33.48,2.83,47.83c5.95-9.17,30-15.75,39.51-20.35,18.82-9.15,54.95-16.06,63.59-37.24A43.21,43.21,0,0,0,1350.72,688.86Z"/><path class="cls-5" d="M370.38,88.92c.22-.16.44-.31.66-.44h0C370.82,88.61,370.6,88.76,370.38,88.92Z"/><path class="cls-5" d="M620.79,18c5.11,0,8,3.65,8.66,9C628.74,21.62,625.9,18,620.79,18Z"/><path class="cls-5" d="M628.75,8.44a20.68,20.68,0,0,0,3,2.23A20.68,20.68,0,0,1,628.75,8.44Z"/><path class="cls-5" d="M649.36,5c-3.87,5.14-7.79,7.55-11.75,7.49,4,.06,7.88-2.35,11.75-7.49l2.75-3.15Z"/><path class="cls-5" d="M665.36,3c6.58.54,13.46-2.86,19.88-.23h0C678.82.13,671.94,3.53,665.36,3Z"/><path class="cls-5" d="M685.2,4.49c.24,6.46,5.29,7.54,10,8.58C690.49,12,685.43,11,685.2,4.49Z"/><path class="cls-5" d="M711.76,33.74c-3.16-5.39-7.19-11.18-12.64-11.93,5.45.75,9.48,6.54,12.65,11.92,2.75,1.91,5.67,1.65,8.6,1.32C717.44,35.38,714.52,35.64,711.76,33.74Z"/><path class="cls-5" d="M777.3,8.29A15.64,15.64,0,0,1,772.72,12a15.64,15.64,0,0,0,4.58-3.72c2.15.3,4.42.13,6.58.37C781.72,8.42,779.45,8.59,777.3,8.29Z"/><path class="cls-5" d="M800.93,50.51h0a6,6,0,0,0,.6-.64A6,6,0,0,1,800.93,50.51Z"/><path class="cls-5" d="M807.47,21.47c-.07-2.37,2.35-4.77,5.13-6.64C809.82,16.7,807.4,19.1,807.47,21.47Z"/><path class="cls-5" d="M823.34,18.55,831,17.29l-7.61,1.26c-1,3.58-2.91,6.36-5.38,7.59C820.43,24.91,822.3,22.13,823.34,18.55Z"/><path class="cls-5" d="M823.33,57.14a76.44,76.44,0,0,1-8.74-1.36,74.28,74.28,0,0,0,8.74,1.35c2.63-.08,5.37-.53,8-.77C828.7,56.6,826,57.05,823.33,57.14Z"/><path class="cls-5" d="M888.5,61.85a20.49,20.49,0,0,0-2.12,6.23,20.49,20.49,0,0,1,2.12-6.23,14.75,14.75,0,0,0,1.75,4.66A14.75,14.75,0,0,1,888.5,61.85Z"/><path class="cls-5" d="M889.05,37.57c-10.93-2.41-21.81-5.07-32.76-7.34,11,2.27,21.83,4.93,32.76,7.34l6.86-.38Z"/><path class="cls-5" d="M897.9,44.29c-3.65,3.84-1.34,6,2,7.88C896.56,50.28,894.25,48.13,897.9,44.29Z"/><path class="cls-5" d="M908.66,41l-1.94-.09,1.94.09c1.58,1.64,3.23,2.39,5,2.15C911.89,43.4,910.24,42.65,908.66,41Z"/><path class="cls-5" d="M913.5,64.68a15,15,0,0,1,.41-3.87A15,15,0,0,0,913.5,64.68Z"/><path class="cls-5" d="M919.51,55.16a9.27,9.27,0,0,1,.89,3.74A9.27,9.27,0,0,0,919.51,55.16Z"/><path class="cls-5" d="M931.84,50.65c2.84-.07,5.62,0,7.64,1.4-2-1.41-4.8-1.47-7.64-1.4q-1.73-2.77-3.47-5.55Q930.11,47.88,931.84,50.65Z"/><path class="cls-5" d="M938.79,77.29c1.15-3.14,2.16-5.87,3.1-8.44C941,71.42,939.94,74.15,938.79,77.29Z"/><path class="cls-5" d="M984.42,80.56a42.59,42.59,0,0,0,7.69,4.16A42.59,42.59,0,0,1,984.42,80.56Z"/><path class="cls-5" d="M1023.55,159.27a5.55,5.55,0,0,0,2-.49A5.55,5.55,0,0,1,1023.55,159.27Z"/><path class="cls-5" d="M1040.82,110.42a5.77,5.77,0,0,0,2.61,2.71h0a5.77,5.77,0,0,1-2.61-2.71,9.75,9.75,0,0,1-.76-3.21A9.75,9.75,0,0,0,1040.82,110.42Z"/><path class="cls-5" d="M1076.33,205.11c.17,1.67.35,3.35.53,5-.18-1.67-.36-3.35-.53-5,2.06-14,1.85-22.6-2.61-27.89C1078.18,182.51,1078.39,191.07,1076.33,205.11Z"/><path class="cls-5" d="M1117.36,246.25a7.19,7.19,0,0,0,4.66,1.88A7.19,7.19,0,0,1,1117.36,246.25Z"/><path class="cls-5" d="M1121.2,244a6.26,6.26,0,0,1,.66,2A6.26,6.26,0,0,0,1121.2,244Z"/><path class="cls-5" d="M1155.25,201.5c-12.37,1.23-18.68-6-19.76-22.72C1144.79,184,1149.15,193.51,1155.25,201.5Z"/><path class="cls-5" d="M1143.38,282.39s0-.07,0-.11S1143.37,282.35,1143.38,282.39Z"/><path class="cls-5" d="M1142.84,280.84c0-.09-.08-.18-.11-.27C1142.76,280.66,1142.81,280.75,1142.84,280.84Z"/><path class="cls-5" d="M1142.21,279.36l-.17-.31Z"/><path class="cls-5" d="M1141.47,278l-.24-.36Z"/><path class="cls-5" d="M1140.6,276.65c-.09-.13-.2-.25-.29-.37C1140.4,276.4,1140.51,276.52,1140.6,276.65Z"/><path class="cls-5" d="M1139.61,275.42c-.14-.15-.29-.29-.44-.43C1139.32,275.13,1139.47,275.27,1139.61,275.42Z"/><path class="cls-5" d="M1135.74,272.39a16.1,16.1,0,0,0-1.56-.75A16.1,16.1,0,0,1,1135.74,272.39Z"/><path class="cls-5" d="M1136.31,272.74c.29.18.6.35.88.55C1136.91,273.09,1136.6,272.92,1136.31,272.74Z"/><path class="cls-5" d="M1138.48,274.3c-.21-.19-.45-.36-.68-.53C1138,273.94,1138.27,274.11,1138.48,274.3Z"/><path class="cls-5" d="M1169.33,318.52c-.56-1-1.09-2-1.6-3.09.51,1.07,1,2.12,1.6,3.09,2,3.46,4.26,6.81,6.55,10.13C1173.59,325.33,1171.36,322,1169.33,318.52Z"/><path class="cls-5" d="M1167.18,314.25l.12.28Z"/><path class="cls-5" d="M1200.71,379.81l-1.2-1.1,1.2,1.1a14.27,14.27,0,0,1,3,3.74A14.27,14.27,0,0,0,1200.71,379.81Z"/><path class="cls-5" d="M1194.73,369.51a8.63,8.63,0,0,0,.31,3.24,8.63,8.63,0,0,1-.31-3.24c-.12-3.26-.25-6.52-.37-9.77,4.41-1.19,10.66-7.52,12.36,1.28C1208.21,368.75,1200.72,369.33,1194.73,369.51Z"/><path class="cls-5" d="M1254.29,327.28q14.1,22.7,25.92,46.58Q1268.4,350,1254.29,327.28Z"/><path class="cls-4" d="M1153,670.09c-4.81,7.66-1.78,14,2.91,20.49,8.82,12.09,14.09,26,20.34,39.9,4.9-5.66-2.94-16.48,7.76-19.52,4.12,4.37,8.64,8,15,8.53-1.69,6.72-15.21,9.42-6.45,19.8,6.4,7.59,14,12.56,24,10.33,10.81-2.4,5.79-12.43,8-19,7.06,1,7.93,11.55,16.26,10.67-15.12,25.49-34.53,26.36-60,2.68l-9.06,3.29c-6.25-5.3-4.21-14.52-9.57-20.23-9.41-30.68-28.54-54.58-52.42-75.17,2.28-19.54,18.78-26.56,32.3-35.69,27-18.23,56.51-32.53,82.15-52.87l6.45-3.42,3.44-3.19,6.51-3.17c3,.36,7.27-1.14,8.3,3,1.13,4.57-3.19,6.65-6.22,8.58-29.25,18.69-58.47,37.45-88,55.61-7.9,4.85-15.65,9.57-22.55,15.86-12.76,11.62-12,16.64,4.43,25.21C1142.43,663.71,1146.24,669.79,1153,670.09Z"/><path class="cls-4" d="M1241.49,734c-4.9-2.95-5.24-6.19-.62-9.76C1244.61,727.3,1244.49,730.58,1241.49,734Z"/><path class="cls-6" d="M1109.76,651.85c23.87,20.59,43,44.49,52.41,75.17l-7.57.5c-12.76-28.35-30.75-53.08-52.2-75.41Z"/><path class="cls-8" d="M537.92,562.79l3.83,1.56a14.58,14.58,0,0,1-1.29,1.66c-1.15-.69-2.21-1.53-3.3-2.33Z"/><path class="cls-6" d="M570.29,918.11l-3.28-3.3Z"/><path class="cls-6" d="M576.18,924.92l-2.65-3.4Z"/><path class="cls-5" d="M1112.46,559.72c4.42.15,8.86,0,12-3.66,28.17-32.71,67.5-49.36,103-71.59q.1,7.11.23,14.23c-11.4,16.46-30.3,21.92-46.31,31.6-6.44-1.89-9.89,2.21-13.19,6.59-15.39,17-35.64,26.65-55.76,36.46Z"/><path class="cls-6" d="M1112.42,611.21c8.41-15.4,25.4-19.5,38.58-28.28,26.52-17.68,54.48-33.19,81.81-49.65,2.85-1.72,5.49-3.76,9.79-.37-6.26,11.75-19.52,15.34-28.31,23.89-7.07.27-11.59,5.56-16.84,9.05-28.1,18.72-55.94,37.82-83.87,56.79Q1113,616.93,1112.42,611.21Z"/><path class="cls-5" d="M1113.58,622.64c27.93-19,55.77-38.07,83.87-56.79,5.25-3.49,9.77-8.78,16.84-9.05.31,6.74,5.23,6.44,9.91,6.49-25.64,20.34-55.16,34.64-82.15,52.87-13.52,9.13-30,16.15-32.3,35.69l-7.35.26c-3.83-2-6.48-4.93-7.36-9.27,4.38-2.36,4.18-6.63,4.4-10.71C1106.65,632.69,1112.18,630.75,1113.58,622.64Z"/><path class="cls-4" d="M1112.4,573.35c20.12-9.81,40.37-19.42,55.76-36.46-.88,14.2,8.75,11.31,17.09,10.51-20.63,9.77-40.6,20.82-58.75,34.63s-38.57,15.32-59.91,14.29l.12-10.43,29.22.05c4.38.41,6.37-2.06,7.16-6a10.53,10.53,0,0,0,2.73-.45l3.4-3.15Z"/><path class="cls-5" d="M1099.56,514.3c.13,9.47-7.54,12-13.91,15.77-8.52,5-19.2,7.34-22.74,18.48-6,1.79-14.47-1.51-16.5,8.2-6.4-1.18-16.25,3.92-16.23-8.93,9-.57,13.4-6.58,16.48-14.11,15.9-9.89,31.88-19.67,47.65-29.77,5.07-3.24,7.84-3.06,8.46,3.48C1099.81,508.84,1099.26,511.37,1099.56,514.3Z"/><path class="cls-4" d="M948.12,682.08c22-12.38,39.23-29.19,48.91-53,.09-1.15.18-2.31.28-3.46.16-1,.3-1.95.42-2.94,4.14-.63,6.41-2.71,5.58-7.2q.33-11.34.67-22.68c10.79,2,4.84,11.16,7.13,16.79l-.81,18.93c-10.3,13.77-16.32,30.32-28.86,42.78-8.1,8.06-15.79,16.14-26.84,20Z"/><path class="cls-5" d="M1158.41,510.72c-8.72,14.71-24.43,20.22-38.71,25.09-10.56,3.59-13.82,8.06-13.76,17.62-10.89-2.15-5.11-11-6.82-16.89,14.87-12.35,29.62-24.9,49.5-28.59C1151.16,511.43,1154.88,510.72,1158.41,510.72Z"/><path class="cls-4" d="M1181.35,530.3c16-9.68,34.91-15.14,46.3-31.61l6.31-1c6,0,10.6,1.3,9,8.9-20.12,10.86-38.18,24.82-56.82,37.89Q1183.71,537.38,1181.35,530.3Z"/><path class="cls-3" d="M1046.66,533.71c-3.08,7.53-7.45,13.54-16.48,14.11a4.27,4.27,0,0,0-2.47-1.49q-2.93-4.55-5.83-9.09l1.41-6.77c3.2-.13,5.87-1.1,7-4.5l9.87,1.31A10.83,10.83,0,0,0,1046.66,533.71Z"/><path class="cls-3" d="M1113.58,622.64c-1.4,8.11-6.93,10.05-14.14,9.49l.12-.21c-1.48-5.28-4.64-10.2-3.54-16,1-1.3,2-2.59,3.08-3.89l3.54-.68,9.78-.08Q1113,616.92,1113.58,622.64Z"/><path class="cls-8" d="M1046.41,556.75c2-9.71,10.53-6.41,16.5-8.2l4.52,5.25c-.85,3.44-1,7.21-4.2,9.62l-13.44.26C1046.78,562.29,1047.14,559.25,1046.41,556.75Z"/><path class="cls-3" d="M1181.35,530.3q2.36,7.08,4.74,14.16a19.67,19.67,0,0,1-.85,2.93c-8.33.81-18,3.7-17.08-10.5C1171.46,532.51,1174.91,528.41,1181.35,530.3Z"/><path class="cls-6" d="M1011.11,609.63c-2.29-5.63,3.66-14.77-7.13-16.79q-.22-3.09-.44-6.18l.67-.65,12.64-3.44c.08,3.43.17,6.86.25,10.29C1015.86,598.72,1020.55,606.7,1011.11,609.63Z"/><path class="cls-3" d="M1066.71,585.89l-.12,10.43h0c-8.29,3-14.08-.12-18.18-7.4a5.71,5.71,0,0,1,1.19-2.92l3.37-3.38a4.75,4.75,0,0,1,2.72-.94l5,.3Z"/><path class="cls-4" d="M1048.4,588.91c4.1,7.28,9.89,10.41,18.18,7.4-2,8.46-8.55,6.93-13.76,5.22C1047,599.61,1045.13,594.79,1048.4,588.91Z"/><path class="cls-6" d="M1096,615.87c-1.1,5.85,2.06,10.77,3.54,16-8,.24-10-6.24-11.08-11.66C1087.78,616.88,1092.68,616.11,1096,615.87Z"/><path class="cls-6" d="M1000.42,566.29q8.48-14.89,17,0s-.79.8-.79.8a26.69,26.69,0,0,0-15.08.37Z"/><path class="cls-5" d="M1017.1,592.86c-.08-3.43-.17-6.86-.25-10.29a6.94,6.94,0,0,1,1.12-2.64l5.67-.27.09.09C1023.07,584.9,1025.9,591.82,1017.1,592.86Z"/><path class="cls-5" d="M1023.59,566.64c3.51.32,6.13,1.62,6.42,5.65.33,4.56-1.73,7-6.28,7.46l-.09-.09Q1023.63,573.15,1023.59,566.64Z"/><path class="cls-6" d="M1023.59,566.64q0,6.51,0,13l-5.68.27-1.32-12.87s.78-.8.79-.8Z"/><path class="cls-4" d="M1049.79,563.68l13.44-.26C1059,575.49,1054.37,569,1049.79,563.68Z"/><path class="cls-6" d="M1021.88,537.24q2.91,4.54,5.83,9.09C1020.48,546.69,1019.18,543.25,1021.88,537.24Z"/><path class="cls-5" d="M1103.09,580c-.79,3.9-2.78,6.37-7.16,6C1096.25,581.47,1098.77,579.64,1103.09,580Z"/><path class="cls-5" d="M1234.09,556.68l-3.44,3.19Z"/><path class="cls-4" d="M1053,582.61l-3.37,3.38Z"/><path class="cls-4" d="M1060.65,582l-5-.3C1057.44,580,1059.1,580.1,1060.65,582Z"/><path class="cls-6" d="M1102.64,611.3l-3.54.68C1100,610.36,1101.18,610.06,1102.64,611.3Z"/><path class="cls-5" d="M1109.22,576.38l-3.4,3.15Z"/><path class="cls-5" d="M1214.26,464.65c0,3.1,1,5.71,4,7.18-10.63,13.44-25.63,20.9-40,29.19-5.72-1-12.24,1.73-17-3.72C1177,483.25,1195.27,473.39,1214.26,464.65Z"/><path class="cls-5" d="M1122.33,487.91q0,8.25,0,16.49c-2.16,3.92-5.15,7.88-9.84,5.39-5.42-2.87-.82-7.62-.07-11.22C1113.51,493.45,1115.65,488.3,1122.33,487.91Z"/><path class="cls-6" d="M1161.25,497.3c4.73,5.45,11.25,2.74,17,3.72l-19.81,9.7c-3.53,0-7.25.71-9.79-2.77C1151.17,502.44,1154.76,498.15,1161.25,497.3Z"/><path class="cls-5" d="M1188.24,461.73c.47-9.25,7.64-6.16,12.72-6.9C1198.6,460.59,1193.68,461.64,1188.24,461.73Z"/><path class="cls-5" d="M1148.47,487.53c.48-6.57,5.29-6.38,10-6.39C1156.62,485.61,1153.23,487.64,1148.47,487.53Z"/><path class="cls-6" d="M1099.56,514.3c-.3-2.93.25-5.46,3.21-6.88C1107.49,512.42,1103.52,513.36,1099.56,514.3Z"/><path class="cls-5" d="M1181.28,467.6q.57-6.37,6.94-5.87C1187.86,466,1185.38,467.75,1181.28,467.6Z"/><path class="cls-5" d="M1142,494.34q0-6.34,6.38-6.68A10.88,10.88,0,0,1,1142,494.34Z"/><path class="cls-5" d="M1171.59,458l-4.12,3.1Z"/><path class="cls-5" d="M1191.28,445.05l-3.61,3.3Z"/><path class="cls-9" d="M1234,497.67l-6.31,1c-.07-4.73-.15-9.48-.22-14.22a6.65,6.65,0,0,1,2.62-.35q1.93-1.62,3.88-3.23a8.16,8.16,0,0,1,2.29-.45c4.34,1.3,9.58,2.44,3,7.76C1236.07,490.75,1234,493.55,1234,497.67Z"/><path class="cls-5" d="M1224.13,471.11l3.77-2.88Z"/><path class="cls-5" d="M1233.93,480.89q-2,1.61-3.88,3.23Q1232,482.5,1233.93,480.89Z"/><path class="cls-5" d="M1224.49,730.61c-2.17,6.58,2.85,16.61-8,19-10,2.23-17.61-2.74-24-10.33-8.76-10.38,4.76-13.08,6.45-19.8C1212.43,711.82,1220.92,715.56,1224.49,730.61Z"/><path class="cls-4" d="M960.36,777.65a3.31,3.31,0,0,1,3.51,3.29Z"/><path class="cls-4" d="M973.44,790.92a3.47,3.47,0,0,1,4.1,2.63C975.41,793.86,974.13,792.84,973.44,790.92Z"/><path class="cls-5" d="M853.58,608.93c-1,3.51-2,6.39-6.25,2.72-19.22-16.51-22.3-51.46-6.18-71.06,20.85-25.36,52.23-31.13,75.25-13.85,26.1,19.61,33,50.89,16.36,74.47-.73,1-3,1-4.53,1.45,1.86-34.39-3.24-45.32-25.2-53.95-11.58-10.68-24.68-7.62-35.17-.39-12.4,8.54-26,18.65-19.73,37.86C847.48,594.35,850.34,601.69,853.58,608.93Z"/><path class="cls-3" d="M903,548.7c22,8.64,27.05,19.57,25.19,54l.16-.12-3.36.1L898.65,626l-25.95-1c-4.13-8-11.14-12.63-19.13-16.05-3.23-7.24-6.09-14.58-5.43-22.74,4.44-1,9.17-5.11,12.94,1.19,1.43,27.12,16.36,35.76,38.3,22.17l3-3,.31-.26c4.84-1.11,11.9,1.82,12.55-6.91,10.63-2.83,7.2-11.4,5.62-17.28-3.3-12.35-10.69-22.35-22.54-28.35Z"/><path class="cls-6" d="M872.7,625l25.95,1,.27,9.51c-11-1.19-22.46,3.45-32.95-3C869.22,630.9,871.7,628.61,872.7,625Z"/><path class="cls-5" d="M925,602.64l3.36-.1c-.51,1.46-1,2.92-1.54,4.39Z"/><path class="cls-4" d="M1017,671.59c-10.46,32-35.7,55.26-60.94,55.59-4.73.06-12.88,3.34-13.14-4.65-.21-6.56,7.53-4.15,12-4.72,22.79-2.94,48.07-28.25,48.81-49.1Z"/><path class="cls-4" d="M1017.75,719.32c-9.3,22.09-29.51,32.62-47.86,45.09-5.65,3.83-10.59.82-14.95-2.6-3.31-2.61-4.28-6.54-1.94-10.31,2.65-4.26,6.76-9.31,11.64-7.36,13.05,5.2,21.26-1,30.4-8.95,8.89-7.72,12.61-17,13.93-28C1010.14,712.48,1011.22,717.87,1017.75,719.32Z"/><path class="cls-3" d="M1017,671.59l-13.31-2.88c-9.15-15.58,5.14-15.4,13.09-19.48v-.07C1020.25,656.6,1024.8,664,1017,671.59Z"/><path class="cls-3" d="M1017.75,719.32c-6.53-1.45-7.61-6.84-8.78-12.16.73-5.49,3.12-9.12,9.4-8.57,5.2.46,7.83,4.82,8.89,8.43C1029.4,714.35,1023.07,716.81,1017.75,719.32Z"/><path class="cls-8" d="M948.12,682.08l6.48,9.28c-2.58,5.75-6.92,8.51-13.29,7.82q-2.85-5.37-5.71-10.75C939.05,684.88,942.28,680.91,948.12,682.08Z"/><path class="cls-4" d="M935.6,688.43q2.86,5.37,5.71,10.75C933.11,698.18,931.92,696,935.6,688.43Z"/><path class="cls-6" d="M1003.31,615.52c.83,4.49-1.44,6.57-5.58,7.2C997.36,618.6,999.3,616.26,1003.31,615.52Z"/><path class="cls-6" d="M997.31,625.66c-.1,1.15-.19,2.31-.28,3.46a14.62,14.62,0,0,1-.94-2.56C996.05,626.34,996.88,626,997.31,625.66Z"/><path class="cls-6" d="M1003.54,586.66c-1-1.16-2-2.33-3-3.49l1.07-.9,2.61,3.74Z"/><path class="cls-3" d="M1004.21,586l-2.61-3.74a27,27,0,0,1-.05-14.85,26.82,26.82,0,0,1,15.09-.36l1.32,12.87a7.08,7.08,0,0,0-1.11,2.64Z"/><path class="cls-4" d="M915.29,599.41c-.65,8.73-7.71,5.8-12.55,6.91a89,89,0,0,1-.33-9.78c.6-8.24-1-16.13-9.27-19s-17.12-3.49-24.28,4c-2.2,2.31-5.17,3.89-7.78,5.81-3.77-6.3-8.5-2.17-12.94-1.19-6.23-19.22,7.32-29.33,19.72-37.87,10.49-7.23,23.59-10.29,35.17.39l-4.66,5.07c-12.66-1-24.92-.82-34.29,11.28C901.77,562.17,913.19,570,915.29,599.41Z"/><path class="cls-5" d="M861.08,587.38c2.61-1.92,5.58-3.5,7.78-5.81,7.16-7.52,16.09-6.87,24.28-4s9.87,10.76,9.27,19a89,89,0,0,0,.33,9.78l-.31.26c-1,1-2,2-3,3C877.44,623.14,862.51,614.5,861.08,587.38Z"/><path class="cls-6" d="M915.29,599.41c-2.1-29.39-13.52-37.24-51.21-34.35,9.37-12.1,21.63-12.29,34.29-11.28,11.85,6,19.24,16,22.54,28.35C922.49,588,925.92,596.58,915.29,599.41Z"/><path class="cls-4" d="M899.38,609.55c1-1,2-2,3-3Z"/></g></g></svg>